<?xml version="1.0" encoding="UTF-8"?>
<svg xmlns="http://www.w3.org/2000/svg" xmlns:xlink="http://www.w3.org/1999/xlink" width="200px" height="58px" viewBox="0 0 198 58" version="1.1">
<g id="surface1">
<rect x="0" y="0" width="198" height="58" style="fill:rgb(99.607843%,99.607843%,99.607843%);fill-opacity:1;stroke:none;"/>
<path style=" stroke:none;fill-rule:nonzero;fill:rgb(65.098039%,65.098039%,65.098039%);fill-opacity:1;" d="M 10.957031 4.3125 L 10.957031 4.703125 L 64.566406 4.703125 C 60.363281 2.9375 53.09375 4.3125 48.523438 4.3125 Z M 10.957031 4.3125 "/>
<path style=" stroke:none;fill-rule:nonzero;fill:rgb(83.137255%,32.941176%,30.196078%);fill-opacity:1;" d="M 10.566406 4.703125 L 10.566406 13.714844 L 64.957031 13.714844 L 64.957031 4.703125 Z M 10.566406 4.703125 "/>
<path style=" stroke:none;fill-rule:nonzero;fill:rgb(65.098039%,65.098039%,65.098039%);fill-opacity:1;" d="M 10.566406 13.714844 L 10.566406 14.109375 L 64.957031 14.109375 C 60.660156 12.300781 53.195312 13.714844 48.523438 13.714844 L 10.566406 13.714844 M 114.652344 21.164062 L 114.652344 21.554688 L 118.175781 21.554688 L 114.652344 21.164062 M 10.566406 21.554688 L 10.566406 21.945312 L 16.433594 21.945312 L 10.566406 21.554688 M 25.824219 21.554688 L 25.824219 21.945312 L 32.871094 22.335938 L 25.824219 21.554688 M 111.914062 21.554688 L 112.304688 21.945312 Z M 111.914062 21.554688 "/>
<path style=" stroke:none;fill-rule:nonzero;fill:rgb(41.176471%,41.176471%,41.176471%);fill-opacity:1;" d="M 112.566406 21.683594 L 112.824219 21.816406 Z M 112.566406 21.683594 "/>
<path style=" stroke:none;fill-rule:nonzero;fill:rgb(12.941176%,12.941176%,12.941176%);fill-opacity:1;" d="M 105.652344 42.714844 C 111.195312 45.175781 128.605469 46.210938 124.882812 35.273438 C 123.007812 29.757812 116.484375 32.714844 113.691406 29.230469 C 112.652344 27.929688 114.386719 27.199219 115.4375 27.082031 C 117.847656 26.8125 119.949219 27.605469 122.085938 28.609375 L 124.042969 23.121094 C 119.5 21.878906 114.902344 20.515625 110.347656 22.648438 C 106.894531 24.269531 104.3125 28.488281 106.71875 32.128906 C 108.507812 34.835938 112.113281 35.445312 115.042969 36.136719 C 115.898438 36.339844 117.75 36.722656 117.535156 37.980469 C 116.960938 41.375 110.042969 37.800781 108.433594 37.894531 C 106.503906 38.007812 105.992188 41.246094 105.652344 42.714844 Z M 105.652344 42.714844 "/>
<path style=" stroke:none;fill-rule:nonzero;fill:rgb(41.176471%,41.176471%,41.176471%);fill-opacity:1;" d="M 119.21875 21.683594 L 119.476562 21.816406 Z M 119.21875 21.683594 "/>
<path style=" stroke:none;fill-rule:nonzero;fill:rgb(65.098039%,65.098039%,65.098039%);fill-opacity:1;" d="M 120 21.683594 L 120.261719 21.816406 Z M 120 21.683594 "/>
<path style=" stroke:none;fill-rule:nonzero;fill:rgb(41.176471%,41.176471%,41.176471%);fill-opacity:1;" d="M 10.566406 21.945312 L 10.957031 22.335938 Z M 10.566406 21.945312 "/>
<path style=" stroke:none;fill-rule:nonzero;fill:rgb(12.941176%,12.941176%,12.941176%);fill-opacity:1;" d="M 17.609375 44.285156 L 17.609375 34.488281 L 26.644531 43.882812 L 32.476562 44.285156 L 32.476562 21.945312 L 25.824219 21.945312 L 25.433594 32.136719 C 22.632812 29.269531 20.351562 24.9375 17.105469 22.628906 C 15.925781 21.792969 11.996094 21.273438 10.96875 22.574219 C 10.105469 23.664062 10.566406 26.128906 10.566406 27.433594 L 10.566406 39.1875 C 10.566406 40.414062 10.15625 42.628906 10.96875 43.65625 C 12.035156 45.003906 16.050781 44.285156 17.609375 44.285156 Z M 17.609375 44.285156 "/>
<path style=" stroke:none;fill-rule:nonzero;fill:rgb(41.176471%,41.176471%,41.176471%);fill-opacity:1;" d="M 16.695312 22.078125 L 16.957031 22.207031 Z M 16.695312 22.078125 "/>
<path style=" stroke:none;fill-rule:nonzero;fill:rgb(65.098039%,65.098039%,65.098039%);fill-opacity:1;" d="M 25.042969 21.945312 L 25.042969 31.742188 L 25.433594 31.742188 Z M 25.042969 21.945312 "/>
<path style=" stroke:none;fill-rule:nonzero;fill:rgb(41.176471%,41.176471%,41.176471%);fill-opacity:1;" d="M 25.433594 21.945312 L 25.433594 31.742188 L 25.824219 31.742188 Z M 25.433594 21.945312 "/>
<path style=" stroke:none;fill-rule:nonzero;fill:rgb(65.098039%,65.098039%,65.098039%);fill-opacity:1;" d="M 110.609375 22.078125 L 110.871094 22.207031 Z M 110.609375 22.078125 "/>
<path style=" stroke:none;fill-rule:nonzero;fill:rgb(41.176471%,41.176471%,41.176471%);fill-opacity:1;" d="M 111.128906 21.945312 L 111.523438 22.335938 L 111.128906 21.945312 M 121.175781 22.078125 L 121.433594 22.207031 Z M 121.175781 22.078125 "/>
<path style=" stroke:none;fill-rule:nonzero;fill:rgb(65.098039%,65.098039%,65.098039%);fill-opacity:1;" d="M 121.695312 21.945312 L 122.085938 22.335938 L 121.695312 21.945312 M 17.21875 22.335938 L 17.609375 22.730469 Z M 17.21875 22.335938 "/>
<path style=" stroke:none;fill-rule:nonzero;fill:rgb(41.176471%,41.176471%,41.176471%);fill-opacity:1;" d="M 32.476562 22.335938 L 32.476562 43.890625 L 32.871094 43.890625 L 32.871094 29.390625 Z M 32.476562 22.335938 "/>
<path style=" stroke:none;fill-rule:nonzero;fill:rgb(65.098039%,65.098039%,65.098039%);fill-opacity:1;" d="M 109.566406 22.335938 L 109.957031 22.730469 Z M 109.566406 22.335938 "/>
<path style=" stroke:none;fill-rule:nonzero;fill:rgb(41.176471%,41.176471%,41.176471%);fill-opacity:1;" d="M 110.21875 22.46875 L 110.476562 22.597656 L 110.21875 22.46875 M 122.085938 22.335938 L 122.085938 22.730469 L 123.652344 23.121094 L 123.652344 22.730469 Z M 122.085938 22.335938 "/>
<path style=" stroke:none;fill-rule:nonzero;fill:rgb(65.098039%,65.098039%,65.098039%);fill-opacity:1;" d="M 122.871094 22.335938 L 123.261719 22.730469 L 122.871094 22.335938 M 17.609375 22.730469 L 18.78125 23.90625 L 17.609375 22.730469 M 108.78125 22.730469 L 107.609375 23.511719 L 107.609375 23.90625 L 109.175781 23.121094 Z M 108.78125 22.730469 "/>
<path style=" stroke:none;fill-rule:nonzero;fill:rgb(41.176471%,41.176471%,41.176471%);fill-opacity:1;" d="M 109.433594 22.859375 L 109.695312 22.992188 Z M 109.433594 22.859375 "/>
<path style=" stroke:none;fill-rule:nonzero;fill:rgb(65.098039%,65.098039%,65.098039%);fill-opacity:1;" d="M 123.652344 22.730469 L 124.433594 23.511719 L 124.433594 22.730469 Z M 123.652344 22.730469 "/>
<path style=" stroke:none;fill-rule:nonzero;fill:rgb(41.176471%,41.176471%,41.176471%);fill-opacity:1;" d="M 17.609375 23.121094 L 18 23.511719 L 17.609375 23.121094 M 108.78125 23.121094 L 109.175781 23.511719 L 108.78125 23.121094 M 18 23.511719 L 18.390625 23.90625 L 18 23.511719 M 108 23.511719 L 108.390625 23.90625 L 108 23.511719 M 124.042969 23.511719 L 124.433594 23.90625 L 124.042969 23.511719 M 18.390625 23.90625 L 18.78125 24.296875 L 18.390625 23.90625 M 107.609375 23.90625 L 108 24.296875 Z M 107.609375 23.90625 "/>
<path style=" stroke:none;fill-rule:nonzero;fill:rgb(65.098039%,65.098039%,65.098039%);fill-opacity:1;" d="M 124.042969 23.90625 L 123.652344 25.472656 L 124.042969 25.472656 Z M 124.042969 23.90625 "/>
<path style=" stroke:none;fill-rule:nonzero;fill:rgb(41.176471%,41.176471%,41.176471%);fill-opacity:1;" d="M 18.78125 24.296875 L 19.175781 24.6875 L 18.78125 24.296875 M 107.21875 24.296875 L 107.609375 24.6875 L 107.21875 24.296875 M 123.652344 24.296875 L 124.042969 24.6875 Z M 123.652344 24.296875 "/>
<path style=" stroke:none;fill-rule:nonzero;fill:rgb(65.098039%,65.098039%,65.098039%);fill-opacity:1;" d="M 19.175781 24.6875 L 20.738281 26.257812 Z M 19.175781 24.6875 "/>
<path style=" stroke:none;fill-rule:nonzero;fill:rgb(41.176471%,41.176471%,41.176471%);fill-opacity:1;" d="M 106.824219 24.6875 L 107.21875 25.082031 L 106.824219 24.6875 M 19.175781 25.082031 L 19.566406 25.472656 Z M 19.175781 25.082031 "/>
<path style=" stroke:none;fill-rule:nonzero;fill:rgb(65.098039%,65.098039%,65.098039%);fill-opacity:1;" d="M 106.433594 25.082031 L 105.652344 27.039062 L 106.042969 27.039062 Z M 106.433594 25.082031 "/>
<path style=" stroke:none;fill-rule:nonzero;fill:rgb(41.176471%,41.176471%,41.176471%);fill-opacity:1;" d="M 19.566406 25.472656 L 19.957031 25.863281 L 19.566406 25.472656 M 106.433594 25.472656 L 106.824219 25.863281 L 106.433594 25.472656 M 123.261719 25.472656 L 123.652344 25.863281 L 123.261719 25.472656 M 19.957031 25.863281 L 20.347656 26.257812 Z M 19.957031 25.863281 "/>
<path style=" stroke:none;fill-rule:nonzero;fill:rgb(65.098039%,65.098039%,65.098039%);fill-opacity:1;" d="M 123.261719 25.863281 L 123.652344 26.257812 Z M 123.261719 25.863281 "/>
<path style=" stroke:none;fill-rule:nonzero;fill:rgb(41.176471%,41.176471%,41.176471%);fill-opacity:1;" d="M 20.347656 26.257812 L 20.738281 26.648438 Z M 20.347656 26.257812 "/>
<path style=" stroke:none;fill-rule:nonzero;fill:rgb(65.098039%,65.098039%,65.098039%);fill-opacity:1;" d="M 44.21875 26.257812 L 44.21875 26.648438 L 46.566406 26.648438 Z M 44.21875 26.257812 "/>
<path style=" stroke:none;fill-rule:nonzero;fill:rgb(41.176471%,41.176471%,41.176471%);fill-opacity:1;" d="M 106.042969 26.257812 L 106.433594 26.648438 L 106.042969 26.257812 M 122.871094 26.257812 L 123.261719 26.648438 Z M 122.871094 26.257812 "/>
<path style=" stroke:none;fill-rule:nonzero;fill:rgb(65.098039%,65.098039%,65.098039%);fill-opacity:1;" d="M 160.433594 26.257812 L 160.433594 26.648438 L 162.78125 26.648438 L 160.433594 26.257812 M 20.738281 26.648438 L 21.128906 27.039062 L 20.738281 26.648438 M 41.871094 26.648438 L 42.261719 27.039062 Z M 41.871094 26.648438 "/>
<path style=" stroke:none;fill-rule:nonzero;fill:rgb(41.176471%,41.176471%,41.176471%);fill-opacity:1;" d="M 40.304688 27.433594 L 40.304688 27.824219 L 43.042969 27.039062 Z M 40.304688 27.433594 "/>
<path style=" stroke:none;fill-rule:nonzero;fill:rgb(12.941176%,12.941176%,12.941176%);fill-opacity:1;" d="M 53.21875 41.933594 L 53.21875 41.539062 C 52.28125 40.605469 51.109375 38.992188 49.695312 38.835938 C 46.640625 38.496094 44.515625 40.746094 42.652344 36.835938 L 54.78125 36.835938 C 54.664062 34.03125 54.199219 31.066406 52.023438 29.082031 C 47.664062 25.117188 38.910156 26.105469 36.378906 31.742188 C 31.71875 42.128906 46.054688 47.808594 53.21875 41.933594 Z M 53.21875 41.933594 "/>
<path style=" stroke:none;fill-rule:nonzero;fill:rgb(41.176471%,41.176471%,41.176471%);fill-opacity:1;" d="M 47.347656 26.648438 L 47.347656 27.039062 L 49.304688 27.433594 L 49.304688 27.039062 Z M 47.347656 26.648438 "/>
<path style=" stroke:none;fill-rule:nonzero;fill:rgb(65.098039%,65.098039%,65.098039%);fill-opacity:1;" d="M 48.128906 26.648438 L 48.523438 27.039062 Z M 48.128906 26.648438 "/>
<path style=" stroke:none;fill-rule:nonzero;fill:rgb(41.176471%,41.176471%,41.176471%);fill-opacity:1;" d="M 55.175781 27.433594 L 62.21875 27.433594 C 60.746094 26.316406 56.46875 25.949219 55.175781 27.433594 Z M 55.175781 27.433594 "/>
<path style=" stroke:none;fill-rule:nonzero;fill:rgb(65.098039%,65.098039%,65.098039%);fill-opacity:1;" d="M 61.824219 26.648438 L 62.21875 27.039062 L 61.824219 26.648438 M 68.085938 26.648438 L 67.695312 27.433594 Z M 68.085938 26.648438 "/>
<path style=" stroke:none;fill-rule:nonzero;fill:rgb(41.176471%,41.176471%,41.176471%);fill-opacity:1;" d="M 67.304688 29.390625 L 67.695312 29.390625 C 68.898438 26.425781 71.601562 27.039062 74.347656 27.039062 C 71.640625 25.902344 68.117188 26.316406 67.304688 29.390625 M 80.609375 26.648438 L 80.609375 27.039062 L 86.476562 27.039062 Z M 80.609375 26.648438 "/>
<path style=" stroke:none;fill-rule:nonzero;fill:rgb(65.098039%,65.098039%,65.098039%);fill-opacity:1;" d="M 86.476562 26.648438 L 86.476562 28.214844 L 86.871094 28.214844 L 86.476562 26.648438 M 87.652344 26.648438 L 88.042969 27.039062 Z M 87.652344 26.648438 "/>
<path style=" stroke:none;fill-rule:nonzero;fill:rgb(41.176471%,41.176471%,41.176471%);fill-opacity:1;" d="M 94.695312 32.527344 L 88.042969 31.742188 L 88.042969 27.039062 L 103.304688 27.039062 L 102.523438 32.136719 C 103.585938 31.089844 104.660156 27.808594 102.789062 26.886719 C 101.839844 26.417969 100.417969 26.648438 99.390625 26.648438 C 96.511719 26.648438 91.15625 25.605469 88.558594 26.886719 C 86.5625 27.871094 87.46875 31.917969 89.617188 32.113281 C 91.351562 32.269531 92.980469 32.117188 94.695312 32.527344 Z M 94.695312 32.527344 "/>
<path style=" stroke:none;fill-rule:nonzero;fill:rgb(65.098039%,65.098039%,65.098039%);fill-opacity:1;" d="M 103.304688 26.648438 L 103.695312 31.351562 L 104.085938 31.351562 L 103.304688 26.648438 M 122.871094 26.648438 L 123.261719 27.039062 Z M 122.871094 26.648438 "/>
<path style=" stroke:none;fill-rule:nonzero;fill:rgb(41.176471%,41.176471%,41.176471%);fill-opacity:1;" d="M 127.566406 26.648438 L 127.566406 27.039062 L 134.609375 27.433594 C 133.273438 25.902344 129.496094 26.648438 127.566406 26.648438 Z M 127.566406 26.648438 "/>
<path style=" stroke:none;fill-rule:nonzero;fill:rgb(65.098039%,65.098039%,65.098039%);fill-opacity:1;" d="M 134.609375 26.648438 L 134.609375 36.054688 L 135 36.054688 L 134.609375 26.648438 M 139.433594 26.910156 L 139.566406 27.171875 Z M 139.433594 26.910156 "/>
<path style=" stroke:none;fill-rule:nonzero;fill:rgb(41.176471%,41.176471%,41.176471%);fill-opacity:1;" d="M 139.695312 26.648438 L 139.695312 27.039062 L 146.738281 27.039062 Z M 139.695312 26.648438 "/>
<path style=" stroke:none;fill-rule:nonzero;fill:rgb(65.098039%,65.098039%,65.098039%);fill-opacity:1;" d="M 149.871094 26.648438 L 150.261719 27.039062 Z M 149.871094 26.648438 "/>
<path style=" stroke:none;fill-rule:nonzero;fill:rgb(41.176471%,41.176471%,41.176471%);fill-opacity:1;" d="M 149.871094 50.554688 L 150.261719 50.554688 L 150.261719 27.039062 C 152.570312 27.039062 155.136719 26.535156 156.914062 28.214844 L 158.871094 27.433594 L 158.871094 27.039062 L 156.914062 27.824219 C 155.921875 26.289062 150.644531 25.683594 149.992188 27.882812 C 149.351562 30.042969 149.871094 33.023438 149.871094 35.269531 Z M 149.871094 50.554688 "/>
<path style=" stroke:none;fill-rule:nonzero;fill:rgb(65.098039%,65.098039%,65.098039%);fill-opacity:1;" d="M 156.523438 26.648438 L 156.914062 27.039062 L 156.523438 26.648438 M 158.738281 26.777344 L 159 26.910156 Z M 158.738281 26.777344 "/>
<path style=" stroke:none;fill-rule:nonzero;fill:rgb(41.176471%,41.176471%,41.176471%);fill-opacity:1;" d="M 159.523438 26.777344 L 159.78125 26.910156 Z M 159.523438 26.777344 "/>
<path style=" stroke:none;fill-rule:nonzero;fill:rgb(12.941176%,12.941176%,12.941176%);fill-opacity:1;" d="M 156.914062 28.214844 C 155.558594 26.335938 152.367188 27.039062 150.261719 27.039062 L 150.261719 50.554688 L 156.914062 50.554688 L 156.914062 43.5 C 159.84375 43.996094 162.636719 44.90625 165.519531 43.53125 C 170.851562 40.992188 171.5 32.25 167.015625 28.585938 C 163.824219 25.976562 160.308594 26.480469 156.914062 28.214844 Z M 156.914062 28.214844 "/>
<path style=" stroke:none;fill-rule:nonzero;fill:rgb(41.176471%,41.176471%,41.176471%);fill-opacity:1;" d="M 163.566406 26.648438 L 163.566406 27.039062 L 165.128906 27.433594 L 165.128906 27.039062 Z M 163.566406 26.648438 "/>
<path style=" stroke:none;fill-rule:nonzero;fill:rgb(65.098039%,65.098039%,65.098039%);fill-opacity:1;" d="M 164.347656 26.648438 L 164.738281 27.039062 L 164.347656 26.648438 M 21.128906 27.039062 L 22.304688 28.214844 L 21.128906 27.039062 M 40.695312 27.039062 L 41.085938 27.433594 L 40.695312 27.039062 M 49.304688 27.039062 L 49.304688 27.433594 L 51.261719 28.214844 L 51.261719 27.824219 Z M 49.304688 27.039062 "/>
<path style=" stroke:none;fill-rule:nonzero;fill:rgb(12.941176%,12.941176%,12.941176%);fill-opacity:1;" d="M 55.566406 27.039062 C 56.40625 30.675781 57.96875 34.074219 59.078125 37.621094 C 59.660156 39.488281 60.074219 42.1875 61.464844 43.65625 C 62.230469 44.46875 63.554688 44.28125 64.566406 44.285156 C 69.03125 44.289062 70.078125 40.546875 70.433594 36.445312 C 72.480469 38.316406 72.09375 42.414062 74.15625 43.882812 C 75.335938 44.71875 79.632812 44.710938 80.671875 43.65625 C 81.773438 42.53125 82.058594 40.242188 82.585938 38.796875 C 83.980469 34.972656 85.65625 31.027344 86.476562 27.039062 C 84.957031 27.039062 82.554688 26.585938 81.167969 27.277344 C 79.285156 28.21875 78.160156 34.089844 77.871094 36.054688 L 74.347656 27.039062 L 68.671875 27.441406 L 64.566406 35.664062 L 61.625 27.441406 Z M 55.566406 27.039062 "/>
<path style=" stroke:none;fill-rule:nonzero;fill:rgb(65.098039%,65.098039%,65.098039%);fill-opacity:1;" d="M 74.347656 27.039062 L 74.738281 27.433594 L 74.347656 27.039062 M 80.21875 27.039062 L 79.433594 29.390625 L 79.824219 29.390625 Z M 80.21875 27.039062 "/>
<path style=" stroke:none;fill-rule:nonzero;fill:rgb(12.941176%,12.941176%,12.941176%);fill-opacity:1;" d="M 88.042969 27.039062 L 88.042969 31.742188 L 94.695312 31.742188 C 92.164062 36.648438 87.652344 38.234375 87.652344 44.285156 L 103.695312 44.285156 L 103.695312 39.1875 L 96.652344 39.1875 C 99.617188 34.710938 103.304688 32.796875 103.304688 27.039062 Z M 88.042969 27.039062 "/>
<path style=" stroke:none;fill-rule:nonzero;fill:rgb(41.176471%,41.176471%,41.176471%);fill-opacity:1;" d="M 105.652344 27.039062 L 105.652344 28.609375 L 106.042969 28.609375 L 105.652344 27.039062 M 114.128906 27.171875 L 114.390625 27.300781 Z M 114.128906 27.171875 "/>
<path style=" stroke:none;fill-rule:nonzero;fill:rgb(65.098039%,65.098039%,65.098039%);fill-opacity:1;" d="M 114.652344 27.039062 L 114.652344 27.433594 L 117.390625 27.433594 Z M 114.652344 27.039062 "/>
<path style=" stroke:none;fill-rule:nonzero;fill:rgb(41.176471%,41.176471%,41.176471%);fill-opacity:1;" d="M 117.390625 27.039062 L 117.390625 27.433594 L 118.957031 27.433594 L 117.390625 27.039062 M 122.476562 27.039062 L 122.085938 28.609375 L 122.476562 28.609375 Z M 122.476562 27.039062 "/>
<path style=" stroke:none;fill-rule:nonzero;fill:rgb(65.098039%,65.098039%,65.098039%);fill-opacity:1;" d="M 127.175781 27.039062 L 127.175781 38.011719 L 127.566406 38.011719 Z M 127.175781 27.039062 "/>
<path style=" stroke:none;fill-rule:nonzero;fill:rgb(12.941176%,12.941176%,12.941176%);fill-opacity:1;" d="M 127.566406 27.039062 C 127.566406 33.761719 125.917969 45.503906 136.175781 44.210938 C 137.605469 44.03125 138.824219 43.363281 140.085938 42.714844 C 140.742188 44.691406 145.9375 45.328125 146.613281 43.050781 C 147.964844 38.492188 146.738281 31.804688 146.738281 27.039062 L 139.695312 27.039062 C 139.695312 29.863281 140.390625 33.785156 139.347656 36.441406 C 138.742188 37.976562 136.996094 39.214844 135.5625 37.835938 C 133 35.382812 136.527344 29.460938 133.980469 27.441406 C 132.648438 26.386719 129.195312 27.039062 127.566406 27.039062 Z M 127.566406 27.039062 "/>
<path style=" stroke:none;fill-rule:nonzero;fill:rgb(65.098039%,65.098039%,65.098039%);fill-opacity:1;" d="M 156.914062 27.039062 L 156.914062 27.824219 L 157.695312 27.824219 L 156.914062 27.039062 M 157.695312 27.039062 L 158.085938 27.433594 L 157.695312 27.039062 M 165.128906 27.039062 L 165.128906 27.433594 L 166.304688 27.824219 Z M 165.128906 27.039062 "/>
<path style=" stroke:none;fill-rule:nonzero;fill:rgb(41.176471%,41.176471%,41.176471%);fill-opacity:1;" d="M 21.128906 27.433594 L 21.523438 27.824219 Z M 21.128906 27.433594 "/>
<path style=" stroke:none;fill-rule:nonzero;fill:rgb(65.098039%,65.098039%,65.098039%);fill-opacity:1;" d="M 38.738281 28.609375 L 40.304688 27.824219 Z M 38.738281 28.609375 "/>
<path style=" stroke:none;fill-rule:nonzero;fill:rgb(41.176471%,41.176471%,41.176471%);fill-opacity:1;" d="M 49.695312 27.433594 L 50.085938 27.824219 Z M 49.695312 27.433594 "/>
<path style=" stroke:none;fill-rule:nonzero;fill:rgb(65.098039%,65.098039%,65.098039%);fill-opacity:1;" d="M 55.304688 27.695312 L 55.433594 27.953125 L 55.304688 27.695312 M 62.347656 27.695312 L 62.476562 27.953125 Z M 62.347656 27.695312 "/>
<path style=" stroke:none;fill-rule:nonzero;fill:rgb(41.176471%,41.176471%,41.176471%);fill-opacity:1;" d="M 74.476562 27.695312 L 74.609375 27.953125 L 74.476562 27.695312 M 80.21875 27.433594 L 80.609375 27.824219 Z M 80.21875 27.433594 "/>
<path style=" stroke:none;fill-rule:nonzero;fill:rgb(65.098039%,65.098039%,65.098039%);fill-opacity:1;" d="M 105.261719 27.433594 L 105.261719 30.566406 L 105.652344 30.566406 Z M 105.261719 27.433594 "/>
<path style=" stroke:none;fill-rule:nonzero;fill:rgb(41.176471%,41.176471%,41.176471%);fill-opacity:1;" d="M 113.085938 27.433594 L 113.476562 27.824219 Z M 113.085938 27.433594 "/>
<path style=" stroke:none;fill-rule:nonzero;fill:rgb(65.098039%,65.098039%,65.098039%);fill-opacity:1;" d="M 113.738281 27.5625 L 114 27.695312 L 113.738281 27.5625 M 117.78125 27.433594 L 117.78125 27.824219 L 119.347656 27.824219 Z M 117.78125 27.433594 "/>
<path style=" stroke:none;fill-rule:nonzero;fill:rgb(41.176471%,41.176471%,41.176471%);fill-opacity:1;" d="M 119.609375 27.5625 L 119.871094 27.695312 L 119.609375 27.5625 M 139.304688 27.433594 L 139.304688 36.445312 L 139.695312 36.445312 L 139.304688 27.433594 M 165.523438 27.433594 L 165.914062 27.824219 L 165.523438 27.433594 M 21.523438 27.824219 L 21.914062 28.214844 L 21.523438 27.824219 M 39.523438 27.824219 L 39.914062 28.214844 L 39.523438 27.824219 M 50.476562 27.824219 L 50.871094 28.214844 L 50.476562 27.824219 M 55.695312 28.085938 L 55.828125 28.347656 Z M 55.695312 28.085938 "/>
<path style=" stroke:none;fill-rule:nonzero;fill:rgb(65.098039%,65.098039%,65.098039%);fill-opacity:1;" d="M 74.738281 27.824219 L 75.128906 29.785156 L 75.523438 29.785156 Z M 74.738281 27.824219 "/>
<path style=" stroke:none;fill-rule:nonzero;fill:rgb(41.176471%,41.176471%,41.176471%);fill-opacity:1;" d="M 86.21875 28.085938 L 86.347656 28.347656 Z M 86.21875 28.085938 "/>
<path style=" stroke:none;fill-rule:nonzero;fill:rgb(65.098039%,65.098039%,65.098039%);fill-opacity:1;" d="M 113.085938 27.824219 L 113.085938 29 L 113.476562 29 L 113.085938 27.824219 M 120 27.953125 L 120.261719 28.085938 Z M 120 27.953125 "/>
<path style=" stroke:none;fill-rule:nonzero;fill:rgb(41.176471%,41.176471%,41.176471%);fill-opacity:1;" d="M 120.523438 27.824219 L 120.523438 28.214844 L 121.695312 28.609375 Z M 120.523438 27.824219 "/>
<path style=" stroke:none;fill-rule:nonzero;fill:rgb(65.098039%,65.098039%,65.098039%);fill-opacity:1;" d="M 122.476562 27.824219 L 122.871094 28.214844 L 122.476562 27.824219 M 166.304688 27.824219 L 166.304688 28.214844 L 167.871094 29 Z M 166.304688 27.824219 "/>
<path style=" stroke:none;fill-rule:nonzero;fill:rgb(41.176471%,41.176471%,41.176471%);fill-opacity:1;" d="M 21.914062 28.214844 L 22.304688 28.609375 L 21.914062 28.214844 M 39.128906 28.214844 L 39.523438 28.609375 Z M 39.128906 28.214844 "/>
<path style=" stroke:none;fill-rule:nonzero;fill:rgb(65.098039%,65.098039%,65.098039%);fill-opacity:1;" d="M 51.261719 28.214844 L 51.652344 28.609375 Z M 51.261719 28.214844 "/>
<path style=" stroke:none;fill-rule:nonzero;fill:rgb(41.176471%,41.176471%,41.176471%);fill-opacity:1;" d="M 62.21875 28.214844 L 62.609375 28.609375 Z M 62.21875 28.214844 "/>
<path style=" stroke:none;fill-rule:nonzero;fill:rgb(65.098039%,65.098039%,65.098039%);fill-opacity:1;" d="M 67.304688 28.214844 L 67.695312 28.609375 Z M 67.304688 28.214844 "/>
<path style=" stroke:none;fill-rule:nonzero;fill:rgb(41.176471%,41.176471%,41.176471%);fill-opacity:1;" d="M 112.824219 28.476562 L 112.957031 28.738281 Z M 112.824219 28.476562 "/>
<path style=" stroke:none;fill-rule:nonzero;fill:rgb(65.098039%,65.098039%,65.098039%);fill-opacity:1;" d="M 120.914062 28.214844 L 121.304688 28.609375 Z M 120.914062 28.214844 "/>
<path style=" stroke:none;fill-rule:nonzero;fill:rgb(41.176471%,41.176471%,41.176471%);fill-opacity:1;" d="M 166.695312 28.214844 L 167.085938 28.609375 L 166.695312 28.214844 M 22.304688 28.609375 L 22.695312 29 L 22.304688 28.609375 M 38.347656 28.609375 L 38.738281 29 L 38.347656 28.609375 M 51.652344 28.609375 L 52.433594 29.390625 Z M 51.652344 28.609375 "/>
<path style=" stroke:none;fill-rule:nonzero;fill:rgb(65.098039%,65.098039%,65.098039%);fill-opacity:1;" d="M 52.042969 28.609375 L 52.433594 29 L 52.042969 28.609375 M 55.695312 28.871094 L 55.828125 29.128906 L 55.695312 28.871094 M 62.738281 28.871094 L 62.871094 29.128906 Z M 62.738281 28.871094 "/>
<path style=" stroke:none;fill-rule:nonzero;fill:rgb(41.176471%,41.176471%,41.176471%);fill-opacity:1;" d="M 79.957031 28.871094 L 80.085938 29.128906 Z M 79.957031 28.871094 "/>
<path style=" stroke:none;fill-rule:nonzero;fill:rgb(65.098039%,65.098039%,65.098039%);fill-opacity:1;" d="M 86.21875 28.871094 L 86.347656 29.128906 L 86.21875 28.871094 M 121.957031 28.738281 L 122.21875 28.871094 Z M 121.957031 28.738281 "/>
<path style=" stroke:none;fill-rule:nonzero;fill:rgb(41.176471%,41.176471%,41.176471%);fill-opacity:1;" d="M 167.085938 28.609375 L 167.476562 29 L 167.085938 28.609375 M 22.695312 29 L 23.085938 29.390625 Z M 22.695312 29 "/>
<path style=" stroke:none;fill-rule:nonzero;fill:rgb(65.098039%,65.098039%,65.098039%);fill-opacity:1;" d="M 37.566406 29 L 37.175781 29.785156 Z M 37.566406 29 "/>
<path style=" stroke:none;fill-rule:nonzero;fill:rgb(41.176471%,41.176471%,41.176471%);fill-opacity:1;" d="M 37.957031 29 L 38.347656 29.390625 L 37.957031 29 M 56.085938 29.261719 L 56.21875 29.523438 L 56.085938 29.261719 M 74.738281 29 L 75.128906 29.390625 L 74.738281 29 M 113.085938 29 L 113.476562 29.390625 Z M 113.085938 29 "/>
<path style=" stroke:none;fill-rule:nonzero;fill:rgb(65.098039%,65.098039%,65.098039%);fill-opacity:1;" d="M 167.871094 29 L 168.261719 29.390625 L 167.871094 29 M 23.085938 29.390625 L 24.261719 30.566406 Z M 23.085938 29.390625 "/>
<path style=" stroke:none;fill-rule:nonzero;fill:rgb(41.176471%,41.176471%,41.176471%);fill-opacity:1;" d="M 37.566406 29.390625 L 37.957031 29.785156 L 37.566406 29.390625 M 52.433594 29.390625 L 52.824219 29.785156 L 52.433594 29.390625 M 62.738281 29.652344 L 62.871094 29.914062 Z M 62.738281 29.652344 "/>
<path style=" stroke:none;fill-rule:nonzero;fill:rgb(65.098039%,65.098039%,65.098039%);fill-opacity:1;" d="M 66.914062 29.390625 L 67.304688 29.785156 Z M 66.914062 29.390625 "/>
<path style=" stroke:none;fill-rule:nonzero;fill:rgb(41.176471%,41.176471%,41.176471%);fill-opacity:1;" d="M 79.433594 29.390625 L 79.042969 31.351562 L 79.433594 31.351562 L 79.433594 29.390625 M 85.695312 29.390625 L 86.085938 29.785156 L 85.695312 29.390625 M 113.476562 29.390625 L 113.871094 29.785156 Z M 113.476562 29.390625 "/>
<path style=" stroke:none;fill-rule:nonzero;fill:rgb(65.098039%,65.098039%,65.098039%);fill-opacity:1;" d="M 114.128906 29.523438 L 114.390625 29.652344 Z M 114.128906 29.523438 "/>
<path style=" stroke:none;fill-rule:nonzero;fill:rgb(41.176471%,41.176471%,41.176471%);fill-opacity:1;" d="M 167.871094 29.390625 L 168.261719 29.785156 L 167.871094 29.390625 M 23.085938 29.785156 L 23.476562 30.175781 L 23.085938 29.785156 M 37.175781 29.785156 L 37.566406 30.175781 L 37.175781 29.785156 M 52.824219 29.785156 L 53.21875 30.175781 Z M 52.824219 29.785156 "/>
<path style=" stroke:none;fill-rule:nonzero;fill:rgb(65.098039%,65.098039%,65.098039%);fill-opacity:1;" d="M 56.085938 30.046875 L 56.21875 30.304688 L 56.085938 30.046875 M 63.128906 30.046875 L 63.261719 30.304688 Z M 63.128906 30.046875 "/>
<path style=" stroke:none;fill-rule:nonzero;fill:rgb(41.176471%,41.176471%,41.176471%);fill-opacity:1;" d="M 67.042969 30.046875 L 67.175781 30.304688 L 67.042969 30.046875 M 75.261719 30.046875 L 75.390625 30.304688 Z M 75.261719 30.046875 "/>
<path style=" stroke:none;fill-rule:nonzero;fill:rgb(65.098039%,65.098039%,65.098039%);fill-opacity:1;" d="M 85.695312 29.785156 L 86.085938 30.175781 Z M 85.695312 29.785156 "/>
<path style=" stroke:none;fill-rule:nonzero;fill:rgb(41.176471%,41.176471%,41.176471%);fill-opacity:1;" d="M 105.652344 29.785156 L 105.652344 30.960938 L 106.042969 30.960938 L 105.652344 29.785156 M 114.523438 29.914062 L 114.78125 30.046875 Z M 114.523438 29.914062 "/>
<path style=" stroke:none;fill-rule:nonzero;fill:rgb(65.098039%,65.098039%,65.098039%);fill-opacity:1;" d="M 115.042969 29.785156 L 115.042969 30.175781 L 116.609375 30.175781 L 115.042969 29.785156 M 168.261719 29.785156 L 168.652344 30.175781 Z M 168.261719 29.785156 "/>
<path style=" stroke:none;fill-rule:nonzero;fill:rgb(41.176471%,41.176471%,41.176471%);fill-opacity:1;" d="M 23.476562 30.175781 L 23.871094 30.566406 Z M 23.476562 30.175781 "/>
<path style=" stroke:none;fill-rule:nonzero;fill:rgb(65.098039%,65.098039%,65.098039%);fill-opacity:1;" d="M 36.78125 30.175781 L 37.175781 30.566406 L 36.78125 30.175781 M 53.21875 30.175781 L 53.609375 30.566406 Z M 53.21875 30.175781 "/>
<path style=" stroke:none;fill-rule:nonzero;fill:rgb(41.176471%,41.176471%,41.176471%);fill-opacity:1;" d="M 56.476562 30.4375 L 56.609375 30.699219 Z M 56.476562 30.4375 "/>
<path style=" stroke:none;fill-rule:nonzero;fill:rgb(65.098039%,65.098039%,65.098039%);fill-opacity:1;" d="M 75.652344 30.4375 L 75.78125 30.699219 L 75.652344 30.4375 M 79.042969 30.175781 L 79.433594 30.566406 Z M 79.042969 30.175781 "/>
<path style=" stroke:none;fill-rule:nonzero;fill:rgb(41.176471%,41.176471%,41.176471%);fill-opacity:1;" d="M 115.824219 30.175781 L 115.824219 30.566406 L 117 30.566406 Z M 115.824219 30.175781 "/>
<path style=" stroke:none;fill-rule:nonzero;fill:rgb(65.098039%,65.098039%,65.098039%);fill-opacity:1;" d="M 117 30.175781 L 117 30.566406 L 118.175781 30.566406 L 117 30.175781 M 168.652344 30.175781 L 169.042969 31.351562 L 169.433594 31.351562 Z M 168.652344 30.175781 "/>
<path style=" stroke:none;fill-rule:nonzero;fill:rgb(41.176471%,41.176471%,41.176471%);fill-opacity:1;" d="M 23.871094 30.566406 L 24.261719 30.960938 Z M 23.871094 30.566406 "/>
<path style=" stroke:none;fill-rule:nonzero;fill:rgb(65.098039%,65.098039%,65.098039%);fill-opacity:1;" d="M 36.390625 30.566406 L 36.78125 30.960938 L 36.390625 30.566406 M 53.609375 30.566406 L 54.390625 32.917969 L 54.78125 32.917969 Z M 53.609375 30.566406 "/>
<path style=" stroke:none;fill-rule:nonzero;fill:rgb(41.176471%,41.176471%,41.176471%);fill-opacity:1;" d="M 63.128906 30.828125 L 63.261719 31.089844 Z M 63.128906 30.828125 "/>
<path style=" stroke:none;fill-rule:nonzero;fill:rgb(65.098039%,65.098039%,65.098039%);fill-opacity:1;" d="M 66.652344 30.828125 L 66.78125 31.089844 Z M 66.652344 30.828125 "/>
<path style=" stroke:none;fill-rule:nonzero;fill:rgb(41.176471%,41.176471%,41.176471%);fill-opacity:1;" d="M 85.304688 30.566406 L 85.695312 30.960938 L 85.304688 30.566406 M 118.042969 30.699219 L 118.304688 30.828125 Z M 118.042969 30.699219 "/>
<path style=" stroke:none;fill-rule:nonzero;fill:rgb(65.098039%,65.098039%,65.098039%);fill-opacity:1;" d="M 118.828125 30.699219 L 119.085938 30.828125 Z M 118.828125 30.699219 "/>
<path style=" stroke:none;fill-rule:nonzero;fill:rgb(41.176471%,41.176471%,41.176471%);fill-opacity:1;" d="M 168.652344 30.566406 L 169.042969 30.960938 L 168.652344 30.566406 M 24.261719 30.960938 L 24.652344 31.351562 L 24.261719 30.960938 M 36.390625 30.960938 L 36.78125 31.351562 Z M 36.390625 30.960938 "/>
<path style=" stroke:none;fill-rule:nonzero;fill:rgb(65.098039%,65.098039%,65.098039%);fill-opacity:1;" d="M 56.347656 30.960938 L 56.738281 32.527344 L 57.128906 32.527344 L 56.347656 30.960938 M 63.523438 31.222656 L 63.652344 31.480469 Z M 63.523438 31.222656 "/>
<path style=" stroke:none;fill-rule:nonzero;fill:rgb(41.176471%,41.176471%,41.176471%);fill-opacity:1;" d="M 75.652344 31.222656 L 75.78125 31.480469 Z M 75.652344 31.222656 "/>
<path style=" stroke:none;fill-rule:nonzero;fill:rgb(65.098039%,65.098039%,65.098039%);fill-opacity:1;" d="M 85.304688 30.960938 L 85.695312 31.351562 L 85.304688 30.960938 M 105.652344 30.960938 C 106.429688 33.25 108.058594 34.589844 110.347656 35.269531 L 110.347656 34.878906 Z M 105.652344 30.960938 "/>
<path style=" stroke:none;fill-rule:nonzero;fill:rgb(41.176471%,41.176471%,41.176471%);fill-opacity:1;" d="M 119.738281 30.960938 L 120.128906 31.351562 Z M 119.738281 30.960938 "/>
<path style=" stroke:none;fill-rule:nonzero;fill:rgb(65.098039%,65.098039%,65.098039%);fill-opacity:1;" d="M 120.128906 30.960938 L 120.523438 31.351562 Z M 120.128906 30.960938 "/>
<path style=" stroke:none;fill-rule:nonzero;fill:rgb(41.176471%,41.176471%,41.176471%);fill-opacity:1;" d="M 24.652344 31.351562 L 25.042969 31.742188 Z M 24.652344 31.351562 "/>
<path style=" stroke:none;fill-rule:nonzero;fill:rgb(65.098039%,65.098039%,65.098039%);fill-opacity:1;" d="M 36 31.351562 L 36.390625 31.742188 Z M 36 31.351562 "/>
<path style=" stroke:none;fill-rule:nonzero;fill:rgb(41.176471%,41.176471%,41.176471%);fill-opacity:1;" d="M 43.824219 31.351562 L 44.21875 31.742188 Z M 43.824219 31.351562 "/>
<path style=" stroke:none;fill-rule:nonzero;fill:rgb(65.098039%,65.098039%,65.098039%);fill-opacity:1;" d="M 43.042969 32.136719 L 43.042969 32.527344 L 46.175781 31.742188 Z M 43.042969 32.136719 "/>
<path style=" stroke:none;fill-rule:nonzero;fill:rgb(41.176471%,41.176471%,41.176471%);fill-opacity:1;" d="M 46.175781 31.351562 L 46.566406 31.742188 L 46.175781 31.351562 M 53.609375 31.351562 L 54 31.742188 L 53.609375 31.351562 M 56.738281 31.351562 L 57.128906 31.742188 L 56.738281 31.351562 M 66.523438 31.351562 L 66.914062 31.742188 Z M 66.523438 31.351562 "/>
<path style=" stroke:none;fill-rule:nonzero;fill:rgb(65.098039%,65.098039%,65.098039%);fill-opacity:1;" d="M 78.652344 31.351562 L 79.042969 31.742188 Z M 78.652344 31.351562 "/>
<path style=" stroke:none;fill-rule:nonzero;fill:rgb(41.176471%,41.176471%,41.176471%);fill-opacity:1;" d="M 84.914062 31.351562 L 84.128906 34.09375 L 84.523438 34.09375 Z M 84.914062 31.351562 "/>
<path style=" stroke:none;fill-rule:nonzero;fill:rgb(65.098039%,65.098039%,65.098039%);fill-opacity:1;" d="M 103.304688 31.351562 L 103.695312 31.742188 Z M 103.304688 31.351562 "/>
<path style=" stroke:none;fill-rule:nonzero;fill:rgb(41.176471%,41.176471%,41.176471%);fill-opacity:1;" d="M 106.042969 31.351562 L 106.433594 31.742188 L 106.042969 31.351562 M 120.914062 31.351562 L 121.304688 31.742188 Z M 120.914062 31.351562 "/>
<path style=" stroke:none;fill-rule:nonzero;fill:rgb(65.098039%,65.098039%,65.098039%);fill-opacity:1;" d="M 121.304688 31.351562 L 121.695312 31.742188 Z M 121.304688 31.351562 "/>
<path style=" stroke:none;fill-rule:nonzero;fill:rgb(41.176471%,41.176471%,41.176471%);fill-opacity:1;" d="M 169.042969 31.351562 L 169.433594 32.917969 L 169.824219 32.917969 L 169.042969 31.351562 M 25.042969 31.742188 L 25.433594 32.136719 L 25.042969 31.742188 M 36 31.742188 L 36.390625 32.136719 Z M 36 31.742188 "/>
<path style=" stroke:none;fill-rule:nonzero;fill:rgb(99.607843%,99.607843%,99.607843%);fill-opacity:1;" d="M 42.652344 33.703125 L 48.128906 33.703125 C 46.480469 31.535156 44.128906 31.167969 42.652344 33.703125 Z M 42.652344 33.703125 "/>
<path style=" stroke:none;fill-rule:nonzero;fill:rgb(65.098039%,65.098039%,65.098039%);fill-opacity:1;" d="M 46.566406 31.742188 L 47.738281 32.917969 Z M 46.566406 31.742188 "/>
<path style=" stroke:none;fill-rule:nonzero;fill:rgb(41.176471%,41.176471%,41.176471%);fill-opacity:1;" d="M 46.957031 31.742188 L 47.347656 32.136719 L 46.957031 31.742188 M 63.523438 32.003906 L 63.652344 32.265625 Z M 63.523438 32.003906 "/>
<path style=" stroke:none;fill-rule:nonzero;fill:rgb(65.098039%,65.098039%,65.098039%);fill-opacity:1;" d="M 66.128906 31.742188 L 65.347656 34.488281 L 65.738281 34.488281 L 66.128906 31.742188 M 75.914062 31.742188 L 76.304688 32.136719 Z M 75.914062 31.742188 "/>
<path style=" stroke:none;fill-rule:nonzero;fill:rgb(41.176471%,41.176471%,41.176471%);fill-opacity:1;" d="M 78.78125 32.003906 L 78.914062 32.265625 Z M 78.78125 32.003906 "/>
<path style=" stroke:none;fill-rule:nonzero;fill:rgb(65.098039%,65.098039%,65.098039%);fill-opacity:1;" d="M 87.652344 31.742188 L 88.042969 32.136719 L 87.652344 31.742188 M 102.914062 31.742188 L 103.304688 32.136719 Z M 102.914062 31.742188 "/>
<path style=" stroke:none;fill-rule:nonzero;fill:rgb(41.176471%,41.176471%,41.176471%);fill-opacity:1;" d="M 121.695312 31.742188 L 122.085938 32.136719 Z M 121.695312 31.742188 "/>
<path style=" stroke:none;fill-rule:nonzero;fill:rgb(65.098039%,65.098039%,65.098039%);fill-opacity:1;" d="M 122.085938 31.742188 L 122.476562 32.136719 Z M 122.085938 31.742188 "/>
<path style=" stroke:none;fill-rule:nonzero;fill:rgb(41.176471%,41.176471%,41.176471%);fill-opacity:1;" d="M 159.914062 31.875 L 160.171875 32.003906 Z M 159.914062 31.875 "/>
<path style=" stroke:none;fill-rule:nonzero;fill:rgb(65.098039%,65.098039%,65.098039%);fill-opacity:1;" d="M 169.433594 31.742188 L 169.824219 32.136719 L 169.433594 31.742188 M 35.609375 32.136719 L 35.21875 34.878906 L 35.609375 34.878906 Z M 35.609375 32.136719 "/>
<path style=" stroke:none;fill-rule:nonzero;fill:rgb(41.176471%,41.176471%,41.176471%);fill-opacity:1;" d="M 47.347656 32.136719 L 47.738281 32.527344 L 47.347656 32.136719 M 54 32.136719 L 54.390625 32.527344 Z M 54 32.136719 "/>
<path style=" stroke:none;fill-rule:nonzero;fill:rgb(65.098039%,65.098039%,65.098039%);fill-opacity:1;" d="M 63.914062 32.394531 L 64.042969 32.65625 Z M 63.914062 32.394531 "/>
<path style=" stroke:none;fill-rule:nonzero;fill:rgb(41.176471%,41.176471%,41.176471%);fill-opacity:1;" d="M 76.042969 32.394531 L 76.175781 32.65625 Z M 76.042969 32.394531 "/>
<path style=" stroke:none;fill-rule:nonzero;fill:rgb(65.098039%,65.098039%,65.098039%);fill-opacity:1;" d="M 85.042969 32.394531 L 85.175781 32.65625 L 85.042969 32.394531 M 88.042969 32.136719 L 88.042969 32.527344 C 89.796875 32.527344 93.847656 32.003906 93.523438 33.3125 L 93.914062 33.3125 L 94.304688 32.136719 L 88.042969 32.136719 M 102.523438 32.136719 L 102.914062 32.527344 Z M 102.523438 32.136719 "/>
<path style=" stroke:none;fill-rule:nonzero;fill:rgb(41.176471%,41.176471%,41.176471%);fill-opacity:1;" d="M 106.433594 32.136719 L 106.824219 32.527344 L 106.433594 32.136719 M 122.476562 32.136719 L 123.261719 32.917969 Z M 122.476562 32.136719 "/>
<path style=" stroke:none;fill-rule:nonzero;fill:rgb(65.098039%,65.098039%,65.098039%);fill-opacity:1;" d="M 122.871094 32.136719 L 123.261719 32.527344 Z M 122.871094 32.136719 "/>
<path style=" stroke:none;fill-rule:nonzero;fill:rgb(41.176471%,41.176471%,41.176471%);fill-opacity:1;" d="M 158.476562 32.136719 L 157.304688 33.703125 Z M 158.476562 32.136719 "/>
<path style=" stroke:none;fill-rule:nonzero;fill:rgb(65.098039%,65.098039%,65.098039%);fill-opacity:1;" d="M 158.476562 32.527344 L 158.476562 32.917969 L 162.390625 33.703125 C 161.230469 32.308594 160.214844 32.035156 158.476562 32.527344 Z M 158.476562 32.527344 "/>
<path style=" stroke:none;fill-rule:nonzero;fill:rgb(41.176471%,41.176471%,41.176471%);fill-opacity:1;" d="M 161.21875 32.136719 L 161.609375 32.527344 L 161.21875 32.136719 M 42.652344 32.527344 L 42.261719 33.703125 L 42.652344 33.703125 L 42.652344 32.527344 M 57.261719 32.789062 L 57.390625 33.050781 L 57.261719 32.789062 M 66.128906 32.527344 L 66.523438 32.917969 Z M 66.128906 32.527344 "/>
<path style=" stroke:none;fill-rule:nonzero;fill:rgb(65.098039%,65.098039%,65.098039%);fill-opacity:1;" d="M 78.390625 32.789062 L 78.523438 33.050781 L 78.390625 32.789062 M 102.128906 32.527344 L 102.523438 32.917969 Z M 102.128906 32.527344 "/>
<path style=" stroke:none;fill-rule:nonzero;fill:rgb(41.176471%,41.176471%,41.176471%);fill-opacity:1;" d="M 106.824219 32.527344 L 107.21875 32.917969 Z M 106.824219 32.527344 "/>
<path style=" stroke:none;fill-rule:nonzero;fill:rgb(65.098039%,65.098039%,65.098039%);fill-opacity:1;" d="M 123.261719 32.527344 L 123.652344 32.917969 Z M 123.261719 32.527344 "/>
<path style=" stroke:none;fill-rule:nonzero;fill:rgb(99.607843%,99.607843%,99.607843%);fill-opacity:1;" d="M 158.925781 32.820312 C 156.136719 34.003906 157.484375 39.8125 160.785156 38.554688 C 163.953125 37.347656 162.433594 31.328125 158.925781 32.820312 Z M 158.925781 32.820312 "/>
<path style=" stroke:none;fill-rule:nonzero;fill:rgb(41.176471%,41.176471%,41.176471%);fill-opacity:1;" d="M 161.609375 32.527344 L 162 32.917969 L 161.609375 32.527344 M 35.738281 33.179688 L 35.871094 33.441406 Z M 35.738281 33.179688 "/>
<path style=" stroke:none;fill-rule:nonzero;fill:rgb(65.098039%,65.098039%,65.098039%);fill-opacity:1;" d="M 42.652344 32.917969 L 43.042969 33.3125 L 42.652344 32.917969 M 47.738281 32.917969 L 48.128906 33.3125 Z M 47.738281 32.917969 "/>
<path style=" stroke:none;fill-rule:nonzero;fill:rgb(41.176471%,41.176471%,41.176471%);fill-opacity:1;" d="M 54.390625 32.917969 L 54.390625 34.878906 L 54.78125 34.878906 L 54.390625 32.917969 M 63.914062 33.179688 L 64.042969 33.441406 Z M 63.914062 33.179688 "/>
<path style=" stroke:none;fill-rule:nonzero;fill:rgb(65.098039%,65.098039%,65.098039%);fill-opacity:1;" d="M 76.433594 33.179688 L 76.566406 33.441406 Z M 76.433594 33.179688 "/>
<path style=" stroke:none;fill-rule:nonzero;fill:rgb(41.176471%,41.176471%,41.176471%);fill-opacity:1;" d="M 93.914062 32.917969 L 94.304688 33.3125 Z M 93.914062 32.917969 "/>
<path style=" stroke:none;fill-rule:nonzero;fill:rgb(65.098039%,65.098039%,65.098039%);fill-opacity:1;" d="M 101.738281 32.917969 L 102.128906 33.3125 Z M 101.738281 32.917969 "/>
<path style=" stroke:none;fill-rule:nonzero;fill:rgb(41.176471%,41.176471%,41.176471%);fill-opacity:1;" d="M 107.21875 32.917969 L 107.609375 33.3125 Z M 107.21875 32.917969 "/>
<path style=" stroke:none;fill-rule:nonzero;fill:rgb(65.098039%,65.098039%,65.098039%);fill-opacity:1;" d="M 123.652344 32.917969 L 124.042969 33.3125 Z M 123.652344 32.917969 "/>
<path style=" stroke:none;fill-rule:nonzero;fill:rgb(41.176471%,41.176471%,41.176471%);fill-opacity:1;" d="M 162 32.917969 L 162.390625 33.3125 Z M 162 32.917969 "/>
<path style=" stroke:none;fill-rule:nonzero;fill:rgb(65.098039%,65.098039%,65.098039%);fill-opacity:1;" d="M 169.824219 32.917969 L 169.824219 34.09375 L 170.21875 34.09375 L 169.824219 32.917969 M 57.128906 33.3125 L 57.523438 33.703125 Z M 57.128906 33.3125 "/>
<path style=" stroke:none;fill-rule:nonzero;fill:rgb(41.176471%,41.176471%,41.176471%);fill-opacity:1;" d="M 78.261719 33.3125 L 78.652344 33.703125 Z M 78.261719 33.3125 "/>
<path style=" stroke:none;fill-rule:nonzero;fill:rgb(65.098039%,65.098039%,65.098039%);fill-opacity:1;" d="M 84.652344 33.570312 L 84.78125 33.832031 L 84.652344 33.570312 M 93.128906 33.3125 L 91.566406 35.269531 Z M 93.128906 33.3125 "/>
<path style=" stroke:none;fill-rule:nonzero;fill:rgb(41.176471%,41.176471%,41.176471%);fill-opacity:1;" d="M 101.347656 33.3125 L 101.738281 33.703125 L 101.347656 33.3125 M 107.609375 33.3125 L 108 33.703125 Z M 107.609375 33.3125 "/>
<path style=" stroke:none;fill-rule:nonzero;fill:rgb(65.098039%,65.098039%,65.098039%);fill-opacity:1;" d="M 124.042969 33.3125 L 124.824219 34.09375 L 124.042969 33.3125 M 64.175781 33.703125 L 64.566406 34.09375 Z M 64.175781 33.703125 "/>
<path style=" stroke:none;fill-rule:nonzero;fill:rgb(41.176471%,41.176471%,41.176471%);fill-opacity:1;" d="M 65.738281 33.703125 L 66.128906 34.09375 L 65.738281 33.703125 M 76.304688 33.703125 L 76.695312 34.09375 Z M 76.304688 33.703125 "/>
<path style=" stroke:none;fill-rule:nonzero;fill:rgb(65.098039%,65.098039%,65.098039%);fill-opacity:1;" d="M 77.871094 33.703125 L 77.085938 34.09375 L 76.695312 34.09375 L 77.476562 35.664062 Z M 77.871094 33.703125 "/>
<path style=" stroke:none;fill-rule:nonzero;fill:rgb(41.176471%,41.176471%,41.176471%);fill-opacity:1;" d="M 93.128906 33.703125 L 93.523438 34.09375 L 93.128906 33.703125 M 100.957031 33.703125 L 101.347656 34.09375 L 100.957031 33.703125 M 108 33.703125 L 108.390625 34.09375 L 108 33.703125 M 124.042969 33.703125 L 124.433594 34.09375 Z M 124.042969 33.703125 "/>
<path style=" stroke:none;fill-rule:nonzero;fill:rgb(65.098039%,65.098039%,65.098039%);fill-opacity:1;" d="M 157.304688 33.703125 L 157.304688 34.878906 L 157.695312 34.878906 Z M 157.304688 33.703125 "/>
<path style=" stroke:none;fill-rule:nonzero;fill:rgb(41.176471%,41.176471%,41.176471%);fill-opacity:1;" d="M 162.390625 33.703125 L 162.78125 34.09375 L 162.390625 33.703125 M 57.523438 34.09375 L 58.304688 36.445312 L 58.695312 36.445312 L 57.523438 34.09375 M 64.175781 34.09375 L 64.566406 34.488281 Z M 64.175781 34.09375 "/>
<path style=" stroke:none;fill-rule:nonzero;fill:rgb(65.098039%,65.098039%,65.098039%);fill-opacity:1;" d="M 84.128906 34.09375 L 83.738281 36.054688 L 84.128906 36.054688 Z M 84.128906 34.09375 "/>
<path style=" stroke:none;fill-rule:nonzero;fill:rgb(41.176471%,41.176471%,41.176471%);fill-opacity:1;" d="M 92.738281 34.09375 L 93.128906 34.488281 L 92.738281 34.09375 M 100.566406 34.09375 L 99.390625 35.664062 L 100.566406 34.09375 M 108.78125 34.09375 L 109.175781 34.488281 L 108.78125 34.09375 M 124.433594 34.09375 L 124.824219 34.488281 L 124.433594 34.09375 M 156.914062 34.09375 L 156.914062 37.230469 L 157.304688 37.230469 Z M 156.914062 34.09375 "/>
<path style=" stroke:none;fill-rule:nonzero;fill:rgb(65.098039%,65.098039%,65.098039%);fill-opacity:1;" d="M 162.390625 34.09375 L 162.390625 35.269531 L 162.78125 35.269531 Z M 162.390625 34.09375 "/>
<path style=" stroke:none;fill-rule:nonzero;fill:rgb(41.176471%,41.176471%,41.176471%);fill-opacity:1;" d="M 169.824219 34.09375 L 169.824219 35.269531 L 170.21875 35.269531 L 169.824219 34.09375 M 17.609375 34.488281 L 17.609375 44.285156 L 18 44.285156 Z M 17.609375 34.488281 "/>
<path style=" stroke:none;fill-rule:nonzero;fill:rgb(65.098039%,65.098039%,65.098039%);fill-opacity:1;" d="M 18 34.488281 L 19.175781 35.664062 Z M 18 34.488281 "/>
<path style=" stroke:none;fill-rule:nonzero;fill:rgb(41.176471%,41.176471%,41.176471%);fill-opacity:1;" d="M 18.390625 34.488281 L 18.78125 34.878906 Z M 18.390625 34.488281 "/>
<path style=" stroke:none;fill-rule:nonzero;fill:rgb(65.098039%,65.098039%,65.098039%);fill-opacity:1;" d="M 54.78125 34.488281 L 54.78125 36.835938 L 55.175781 36.835938 L 54.78125 34.488281 M 57.523438 34.488281 L 57.914062 34.878906 Z M 57.523438 34.488281 "/>
<path style=" stroke:none;fill-rule:nonzero;fill:rgb(41.176471%,41.176471%,41.176471%);fill-opacity:1;" d="M 65.347656 34.488281 L 64.566406 35.269531 L 64.566406 35.664062 L 65.347656 34.488281 M 77.871094 34.488281 L 78.261719 34.878906 L 77.871094 34.488281 M 92.347656 34.488281 L 92.738281 34.878906 Z M 92.347656 34.488281 "/>
<path style=" stroke:none;fill-rule:nonzero;fill:rgb(65.098039%,65.098039%,65.098039%);fill-opacity:1;" d="M 100.566406 34.488281 L 100.957031 34.878906 Z M 100.566406 34.488281 "/>
<path style=" stroke:none;fill-rule:nonzero;fill:rgb(41.176471%,41.176471%,41.176471%);fill-opacity:1;" d="M 109.566406 34.488281 L 109.957031 34.878906 Z M 109.566406 34.488281 "/>
<path style=" stroke:none;fill-rule:nonzero;fill:rgb(65.098039%,65.098039%,65.098039%);fill-opacity:1;" d="M 124.824219 34.488281 L 125.21875 34.878906 Z M 124.824219 34.488281 "/>
<path style=" stroke:none;fill-rule:nonzero;fill:rgb(41.176471%,41.176471%,41.176471%);fill-opacity:1;" d="M 18.78125 34.878906 L 19.175781 35.269531 L 18.78125 34.878906 M 35.21875 34.878906 L 35.21875 36.445312 L 35.609375 36.445312 Z M 35.21875 34.878906 "/>
<path style=" stroke:none;fill-rule:nonzero;fill:rgb(65.098039%,65.098039%,65.098039%);fill-opacity:1;" d="M 64.828125 35.007812 L 65.085938 35.140625 Z M 64.828125 35.007812 "/>
<path style=" stroke:none;fill-rule:nonzero;fill:rgb(41.176471%,41.176471%,41.176471%);fill-opacity:1;" d="M 76.695312 34.878906 L 77.085938 35.269531 L 76.695312 34.878906 M 83.738281 34.878906 L 84.128906 35.269531 L 83.738281 34.878906 M 91.957031 34.878906 L 92.347656 35.269531 Z M 91.957031 34.878906 "/>
<path style=" stroke:none;fill-rule:nonzero;fill:rgb(65.098039%,65.098039%,65.098039%);fill-opacity:1;" d="M 100.175781 34.878906 L 100.566406 35.269531 Z M 100.175781 34.878906 "/>
<path style=" stroke:none;fill-rule:nonzero;fill:rgb(41.176471%,41.176471%,41.176471%);fill-opacity:1;" d="M 110.347656 34.878906 L 110.347656 35.269531 L 112.304688 35.664062 L 112.304688 35.269531 L 110.347656 34.878906 M 124.957031 35.140625 L 125.085938 35.402344 L 124.957031 35.140625 M 77.476562 35.269531 L 77.085938 36.054688 L 77.871094 36.054688 L 77.476562 35.269531 M 91.566406 35.269531 L 91.957031 35.664062 Z M 91.566406 35.269531 "/>
<path style=" stroke:none;fill-rule:nonzero;fill:rgb(65.098039%,65.098039%,65.098039%);fill-opacity:1;" d="M 99.78125 35.269531 L 100.175781 35.664062 L 99.78125 35.269531 M 111.128906 35.269531 L 111.523438 35.664062 Z M 111.128906 35.269531 "/>
<path style=" stroke:none;fill-rule:nonzero;fill:rgb(41.176471%,41.176471%,41.176471%);fill-opacity:1;" d="M 162.914062 35.53125 L 163.042969 35.792969 Z M 162.914062 35.53125 "/>
<path style=" stroke:none;fill-rule:nonzero;fill:rgb(65.098039%,65.098039%,65.098039%);fill-opacity:1;" d="M 19.175781 35.664062 L 19.566406 36.054688 L 19.175781 35.664062 M 57.914062 35.664062 L 58.304688 36.054688 Z M 57.914062 35.664062 "/>
<path style=" stroke:none;fill-rule:nonzero;fill:rgb(41.176471%,41.176471%,41.176471%);fill-opacity:1;" d="M 91.175781 35.664062 L 91.566406 36.054688 Z M 91.175781 35.664062 "/>
<path style=" stroke:none;fill-rule:nonzero;fill:rgb(65.098039%,65.098039%,65.098039%);fill-opacity:1;" d="M 99.390625 35.664062 L 99.78125 36.054688 L 99.390625 35.664062 M 112.957031 35.792969 L 113.21875 35.921875 Z M 112.957031 35.792969 "/>
<path style=" stroke:none;fill-rule:nonzero;fill:rgb(41.176471%,41.176471%,41.176471%);fill-opacity:1;" d="M 113.476562 35.664062 L 113.871094 36.054688 Z M 113.476562 35.664062 "/>
<path style=" stroke:none;fill-rule:nonzero;fill:rgb(65.098039%,65.098039%,65.098039%);fill-opacity:1;" d="M 125.347656 35.921875 L 125.476562 36.183594 L 125.347656 35.921875 M 19.566406 36.054688 L 19.957031 36.445312 Z M 19.566406 36.054688 "/>
<path style=" stroke:none;fill-rule:nonzero;fill:rgb(41.176471%,41.176471%,41.176471%);fill-opacity:1;" d="M 83.347656 36.054688 L 83.738281 36.445312 L 83.347656 36.054688 M 90.78125 36.054688 L 91.175781 36.445312 L 90.78125 36.054688 M 98.609375 36.054688 L 98.21875 36.835938 Z M 98.609375 36.054688 "/>
<path style=" stroke:none;fill-rule:nonzero;fill:rgb(65.098039%,65.098039%,65.098039%);fill-opacity:1;" d="M 99 36.054688 L 99.390625 36.445312 L 99 36.054688 M 114.523438 36.183594 L 114.78125 36.316406 Z M 114.523438 36.183594 "/>
<path style=" stroke:none;fill-rule:nonzero;fill:rgb(41.176471%,41.176471%,41.176471%);fill-opacity:1;" d="M 115.304688 36.183594 L 115.566406 36.316406 L 115.304688 36.183594 M 134.609375 36.054688 L 134.609375 37.230469 L 135 37.230469 Z M 134.609375 36.054688 "/>
<path style=" stroke:none;fill-rule:nonzero;fill:rgb(65.098039%,65.098039%,65.098039%);fill-opacity:1;" d="M 162.390625 36.054688 L 161.609375 38.40625 L 162 38.40625 Z M 162.390625 36.054688 "/>
<path style=" stroke:none;fill-rule:nonzero;fill:rgb(41.176471%,41.176471%,41.176471%);fill-opacity:1;" d="M 169.824219 36.054688 L 169.824219 37.230469 L 170.21875 37.230469 L 169.824219 36.054688 M 19.957031 36.445312 L 21.523438 38.011719 Z M 19.957031 36.445312 "/>
<path style=" stroke:none;fill-rule:nonzero;fill:rgb(65.098039%,65.098039%,65.098039%);fill-opacity:1;" d="M 35.21875 36.445312 L 36 39.582031 L 36.390625 39.582031 L 35.21875 36.445312 M 58.433594 36.707031 L 58.566406 36.96875 Z M 58.433594 36.707031 "/>
<path style=" stroke:none;fill-rule:nonzero;fill:rgb(41.176471%,41.176471%,41.176471%);fill-opacity:1;" d="M 70.433594 37.621094 L 70.824219 37.621094 L 71.609375 37.230469 L 71.609375 36.835938 L 70.824219 36.445312 Z M 70.433594 37.621094 "/>
<path style=" stroke:none;fill-rule:nonzero;fill:rgb(65.098039%,65.098039%,65.098039%);fill-opacity:1;" d="M 83.347656 36.445312 L 83.738281 36.835938 L 83.347656 36.445312 M 90.390625 36.445312 L 90.78125 36.835938 L 90.390625 36.445312 M 98.609375 36.445312 L 99 36.835938 L 98.609375 36.445312 M 115.433594 36.445312 L 115.433594 36.835938 L 116.609375 36.835938 Z M 115.433594 36.445312 "/>
<path style=" stroke:none;fill-rule:nonzero;fill:rgb(41.176471%,41.176471%,41.176471%);fill-opacity:1;" d="M 116.609375 36.445312 L 116.609375 36.835938 L 117.78125 38.40625 L 118.175781 38.40625 L 116.609375 36.445312 M 125.21875 36.445312 L 125.21875 37.621094 L 125.609375 37.621094 Z M 125.21875 36.445312 "/>
<path style=" stroke:none;fill-rule:nonzero;fill:rgb(65.098039%,65.098039%,65.098039%);fill-opacity:1;" d="M 138.914062 36.445312 L 138.523438 37.621094 L 138.914062 36.445312 M 157.304688 36.445312 L 157.695312 38.011719 L 158.085938 38.011719 L 157.304688 36.445312 M 19.957031 36.835938 L 20.347656 37.230469 Z M 19.957031 36.835938 "/>
<path style=" stroke:none;fill-rule:nonzero;fill:rgb(41.176471%,41.176471%,41.176471%);fill-opacity:1;" d="M 42.652344 38.011719 L 43.042969 38.011719 C 45.59375 36.078125 51.636719 37.230469 54.78125 37.230469 C 53.0625 36.234375 43.074219 36.046875 42.652344 38.011719 M 58.824219 37.097656 L 58.957031 37.359375 Z M 58.824219 37.097656 "/>
<path style=" stroke:none;fill-rule:nonzero;fill:rgb(65.098039%,65.098039%,65.098039%);fill-opacity:1;" d="M 70.824219 36.835938 L 71.21875 37.230469 L 70.824219 36.835938 M 90 36.835938 L 90.390625 37.230469 L 90 36.835938 M 98.21875 36.835938 L 98.609375 37.230469 L 98.21875 36.835938 M 107.609375 36.835938 L 107.21875 37.621094 L 107.609375 36.835938 M 117 36.835938 L 117.390625 37.230469 L 117 36.835938 M 20.347656 37.230469 L 20.738281 37.621094 L 20.347656 37.230469 M 43.042969 37.230469 L 43.042969 37.621094 L 54.78125 37.621094 L 43.042969 37.230469 M 71.21875 37.230469 L 71.609375 37.621094 Z M 71.21875 37.230469 "/>
<path style=" stroke:none;fill-rule:nonzero;fill:rgb(41.176471%,41.176471%,41.176471%);fill-opacity:1;" d="M 82.957031 37.230469 L 83.347656 37.621094 Z M 82.957031 37.230469 "/>
<path style=" stroke:none;fill-rule:nonzero;fill:rgb(65.098039%,65.098039%,65.098039%);fill-opacity:1;" d="M 89.609375 37.230469 L 88.042969 39.1875 Z M 89.609375 37.230469 "/>
<path style=" stroke:none;fill-rule:nonzero;fill:rgb(41.176471%,41.176471%,41.176471%);fill-opacity:1;" d="M 97.824219 37.230469 L 98.21875 37.621094 L 97.824219 37.230469 M 107.871094 37.359375 L 108.128906 37.492188 Z M 107.871094 37.359375 "/>
<path style=" stroke:none;fill-rule:nonzero;fill:rgb(65.098039%,65.098039%,65.098039%);fill-opacity:1;" d="M 108.390625 37.230469 L 108.78125 37.621094 L 108.390625 37.230469 M 117.390625 37.230469 L 117.78125 37.621094 L 117.390625 37.230469 M 135 37.230469 L 136.175781 38.40625 Z M 135 37.230469 "/>
<path style=" stroke:none;fill-rule:nonzero;fill:rgb(41.176471%,41.176471%,41.176471%);fill-opacity:1;" d="M 138.914062 37.230469 L 139.304688 37.621094 L 138.914062 37.230469 M 162.390625 37.230469 L 162.78125 37.621094 Z M 162.390625 37.230469 "/>
<path style=" stroke:none;fill-rule:nonzero;fill:rgb(65.098039%,65.098039%,65.098039%);fill-opacity:1;" d="M 169.824219 37.230469 L 169.824219 38.40625 L 170.21875 38.40625 L 169.824219 37.230469 M 20.738281 37.621094 L 21.128906 38.011719 Z M 20.738281 37.621094 "/>
<path style=" stroke:none;fill-rule:nonzero;fill:rgb(41.176471%,41.176471%,41.176471%);fill-opacity:1;" d="M 35.738281 37.882812 L 35.871094 38.144531 Z M 35.738281 37.882812 "/>
<path style=" stroke:none;fill-rule:nonzero;fill:rgb(65.098039%,65.098039%,65.098039%);fill-opacity:1;" d="M 58.824219 37.882812 L 58.957031 38.144531 L 58.824219 37.882812 M 70.433594 37.621094 L 69.652344 40.363281 L 70.042969 40.363281 L 70.433594 37.621094 M 82.957031 37.621094 L 83.347656 38.011719 Z M 82.957031 37.621094 "/>
<path style=" stroke:none;fill-rule:nonzero;fill:rgb(41.176471%,41.176471%,41.176471%);fill-opacity:1;" d="M 89.609375 37.621094 L 90 38.011719 L 89.609375 37.621094 M 97.433594 37.621094 L 97.824219 38.011719 L 97.433594 37.621094 M 107.21875 37.621094 L 107.609375 38.011719 L 107.21875 37.621094 M 108.78125 37.621094 L 109.175781 38.011719 Z M 108.78125 37.621094 "/>
<path style=" stroke:none;fill-rule:nonzero;fill:rgb(65.098039%,65.098039%,65.098039%);fill-opacity:1;" d="M 109.175781 37.621094 L 109.566406 38.011719 L 109.175781 37.621094 M 125.21875 37.621094 L 125.21875 38.796875 L 125.609375 38.796875 Z M 125.21875 37.621094 "/>
<path style=" stroke:none;fill-rule:nonzero;fill:rgb(41.176471%,41.176471%,41.176471%);fill-opacity:1;" d="M 135 37.621094 L 135.390625 38.011719 L 135 37.621094 M 138.523438 37.621094 L 138.914062 38.011719 L 138.523438 37.621094 M 157.304688 37.621094 L 157.695312 38.011719 Z M 157.304688 37.621094 "/>
<path style=" stroke:none;fill-rule:nonzero;fill:rgb(65.098039%,65.098039%,65.098039%);fill-opacity:1;" d="M 21.128906 38.011719 L 21.523438 38.40625 L 21.128906 38.011719 M 43.042969 38.011719 L 43.433594 38.40625 L 43.042969 38.011719 M 49.566406 38.144531 L 49.824219 38.273438 Z M 49.566406 38.144531 "/>
<path style=" stroke:none;fill-rule:nonzero;fill:rgb(41.176471%,41.176471%,41.176471%);fill-opacity:1;" d="M 59.21875 38.273438 L 59.347656 38.535156 L 59.21875 38.273438 M 70.042969 38.011719 L 70.433594 38.40625 L 70.042969 38.011719 M 71.609375 38.011719 L 72 38.40625 L 71.609375 38.011719 M 82.695312 38.273438 L 82.828125 38.535156 L 82.695312 38.273438 M 89.21875 38.011719 L 89.609375 38.40625 L 89.21875 38.011719 M 97.042969 38.011719 L 97.433594 38.40625 Z M 97.042969 38.011719 "/>
<path style=" stroke:none;fill-rule:nonzero;fill:rgb(65.098039%,65.098039%,65.098039%);fill-opacity:1;" d="M 106.824219 38.011719 L 107.21875 38.40625 Z M 106.824219 38.011719 "/>
<path style=" stroke:none;fill-rule:nonzero;fill:rgb(41.176471%,41.176471%,41.176471%);fill-opacity:1;" d="M 109.566406 38.011719 L 109.957031 38.40625 Z M 109.566406 38.011719 "/>
<path style=" stroke:none;fill-rule:nonzero;fill:rgb(65.098039%,65.098039%,65.098039%);fill-opacity:1;" d="M 110.21875 38.144531 L 110.476562 38.273438 Z M 110.21875 38.144531 "/>
<path style=" stroke:none;fill-rule:nonzero;fill:rgb(41.176471%,41.176471%,41.176471%);fill-opacity:1;" d="M 135.390625 38.011719 L 135.78125 38.40625 L 135.390625 38.011719 M 138.128906 38.011719 L 138.523438 38.40625 L 138.128906 38.011719 M 157.695312 38.011719 L 158.085938 38.40625 L 157.695312 38.011719 M 162 38.011719 L 162.390625 38.40625 Z M 162 38.011719 "/>
<path style=" stroke:none;fill-rule:nonzero;fill:rgb(65.098039%,65.098039%,65.098039%);fill-opacity:1;" d="M 21.523438 38.40625 L 21.914062 38.796875 Z M 21.523438 38.40625 "/>
<path style=" stroke:none;fill-rule:nonzero;fill:rgb(41.176471%,41.176471%,41.176471%);fill-opacity:1;" d="M 43.433594 38.40625 L 43.824219 38.796875 Z M 43.433594 38.40625 "/>
<path style=" stroke:none;fill-rule:nonzero;fill:rgb(65.098039%,65.098039%,65.098039%);fill-opacity:1;" d="M 48.523438 38.40625 L 48.914062 38.796875 Z M 48.523438 38.40625 "/>
<path style=" stroke:none;fill-rule:nonzero;fill:rgb(41.176471%,41.176471%,41.176471%);fill-opacity:1;" d="M 48.914062 38.40625 L 49.304688 38.796875 L 48.914062 38.40625 M 50.085938 38.40625 L 50.476562 38.796875 Z M 50.085938 38.40625 "/>
<path style=" stroke:none;fill-rule:nonzero;fill:rgb(65.098039%,65.098039%,65.098039%);fill-opacity:1;" d="M 71.738281 38.667969 L 71.871094 38.929688 Z M 71.738281 38.667969 "/>
<path style=" stroke:none;fill-rule:nonzero;fill:rgb(41.176471%,41.176471%,41.176471%);fill-opacity:1;" d="M 88.824219 38.40625 L 89.21875 38.796875 L 88.824219 38.40625 M 96.78125 38.667969 L 96.914062 38.929688 L 96.78125 38.667969 M 106.824219 38.40625 L 107.21875 38.796875 L 106.824219 38.40625 M 111 38.535156 L 111.261719 38.667969 Z M 111 38.535156 "/>
<path style=" stroke:none;fill-rule:nonzero;fill:rgb(65.098039%,65.098039%,65.098039%);fill-opacity:1;" d="M 111.78125 38.535156 L 112.042969 38.667969 Z M 111.78125 38.535156 "/>
<path style=" stroke:none;fill-rule:nonzero;fill:rgb(41.176471%,41.176471%,41.176471%);fill-opacity:1;" d="M 117.390625 38.40625 L 117.78125 38.796875 L 117.390625 38.40625 M 124.824219 38.40625 L 124.824219 39.582031 L 125.21875 39.582031 L 124.824219 38.40625 M 127.695312 38.667969 L 127.828125 38.929688 L 127.695312 38.667969 M 136.175781 38.40625 L 136.175781 38.796875 L 137.738281 38.796875 L 136.175781 38.40625 M 158.085938 38.40625 L 158.476562 38.796875 Z M 158.085938 38.40625 "/>
<path style=" stroke:none;fill-rule:nonzero;fill:rgb(65.098039%,65.098039%,65.098039%);fill-opacity:1;" d="M 158.476562 38.40625 L 158.871094 38.796875 L 158.476562 38.40625 M 161.21875 38.40625 L 161.609375 38.796875 Z M 161.21875 38.40625 "/>
<path style=" stroke:none;fill-rule:nonzero;fill:rgb(41.176471%,41.176471%,41.176471%);fill-opacity:1;" d="M 169.433594 38.40625 L 169.042969 39.972656 L 169.433594 39.972656 L 169.433594 38.40625 M 21.914062 38.796875 L 23.476562 40.363281 L 21.914062 38.796875 M 36 38.796875 L 36.390625 39.1875 L 36 38.796875 M 43.824219 38.796875 L 44.21875 39.1875 Z M 43.824219 38.796875 "/>
<path style=" stroke:none;fill-rule:nonzero;fill:rgb(65.098039%,65.098039%,65.098039%);fill-opacity:1;" d="M 44.476562 38.929688 L 44.738281 39.058594 L 44.476562 38.929688 M 47.609375 38.929688 L 47.871094 39.058594 Z M 47.609375 38.929688 "/>
<path style=" stroke:none;fill-rule:nonzero;fill:rgb(41.176471%,41.176471%,41.176471%);fill-opacity:1;" d="M 48.390625 38.929688 L 48.652344 39.058594 L 48.390625 38.929688 M 50.476562 38.796875 L 50.871094 39.1875 Z M 50.476562 38.796875 "/>
<path style=" stroke:none;fill-rule:nonzero;fill:rgb(65.098039%,65.098039%,65.098039%);fill-opacity:1;" d="M 59.21875 39.058594 L 59.347656 39.320312 Z M 59.21875 39.058594 "/>
<path style=" stroke:none;fill-rule:nonzero;fill:rgb(41.176471%,41.176471%,41.176471%);fill-opacity:1;" d="M 72.128906 39.058594 L 72.261719 39.320312 Z M 72.128906 39.058594 "/>
<path style=" stroke:none;fill-rule:nonzero;fill:rgb(65.098039%,65.098039%,65.098039%);fill-opacity:1;" d="M 82.695312 39.058594 L 82.828125 39.320312 Z M 82.695312 39.058594 "/>
<path style=" stroke:none;fill-rule:nonzero;fill:rgb(41.176471%,41.176471%,41.176471%);fill-opacity:1;" d="M 88.433594 38.796875 L 88.824219 39.1875 Z M 88.433594 38.796875 "/>
<path style=" stroke:none;fill-rule:nonzero;fill:rgb(65.098039%,65.098039%,65.098039%);fill-opacity:1;" d="M 97.042969 38.796875 L 97.042969 39.1875 L 104.085938 39.1875 L 97.042969 38.796875 M 106.433594 38.796875 L 106.824219 39.1875 Z M 106.433594 38.796875 "/>
<path style=" stroke:none;fill-rule:nonzero;fill:rgb(41.176471%,41.176471%,41.176471%);fill-opacity:1;" d="M 111.914062 38.796875 L 111.914062 39.1875 L 113.476562 39.1875 Z M 111.914062 38.796875 "/>
<path style=" stroke:none;fill-rule:nonzero;fill:rgb(65.098039%,65.098039%,65.098039%);fill-opacity:1;" d="M 113.476562 38.796875 L 113.476562 39.1875 L 116.609375 39.1875 Z M 113.476562 38.796875 "/>
<path style=" stroke:none;fill-rule:nonzero;fill:rgb(41.176471%,41.176471%,41.176471%);fill-opacity:1;" d="M 116.871094 38.929688 L 117.128906 39.058594 L 116.871094 38.929688 M 159.128906 38.929688 L 159.390625 39.058594 Z M 159.128906 38.929688 "/>
<path style=" stroke:none;fill-rule:nonzero;fill:rgb(65.098039%,65.098039%,65.098039%);fill-opacity:1;" d="M 159.652344 38.796875 L 160.042969 39.1875 Z M 159.652344 38.796875 "/>
<path style=" stroke:none;fill-rule:nonzero;fill:rgb(41.176471%,41.176471%,41.176471%);fill-opacity:1;" d="M 160.042969 38.796875 L 160.042969 39.1875 L 161.21875 39.1875 Z M 160.042969 38.796875 "/>
<path style=" stroke:none;fill-rule:nonzero;fill:rgb(65.098039%,65.098039%,65.098039%);fill-opacity:1;" d="M 21.914062 39.1875 L 22.304688 39.582031 Z M 21.914062 39.1875 "/>
<path style=" stroke:none;fill-rule:nonzero;fill:rgb(41.176471%,41.176471%,41.176471%);fill-opacity:1;" d="M 44.609375 39.1875 L 44.609375 39.582031 L 48.128906 39.582031 L 44.609375 39.1875 M 50.871094 39.1875 L 51.261719 39.582031 L 50.871094 39.1875 M 69.652344 39.1875 L 70.042969 39.582031 L 69.652344 39.1875 M 82.304688 39.449219 L 82.433594 39.710938 L 82.304688 39.449219 M 88.042969 39.1875 L 88.433594 39.582031 L 88.042969 39.1875 M 103.695312 39.1875 L 103.695312 44.285156 L 104.085938 44.285156 L 103.695312 39.1875 M 106.433594 39.1875 L 106.824219 39.582031 L 106.433594 39.1875 M 114.652344 39.1875 L 114.652344 39.582031 L 115.824219 39.582031 Z M 114.652344 39.1875 "/>
<path style=" stroke:none;fill-rule:nonzero;fill:rgb(65.098039%,65.098039%,65.098039%);fill-opacity:1;" d="M 127.695312 39.449219 L 127.828125 39.710938 L 127.695312 39.449219 M 169.433594 39.1875 L 169.824219 39.582031 L 169.433594 39.1875 M 22.304688 39.582031 L 22.695312 39.972656 Z M 22.304688 39.582031 "/>
<path style=" stroke:none;fill-rule:nonzero;fill:rgb(41.176471%,41.176471%,41.176471%);fill-opacity:1;" d="M 51.261719 39.582031 L 51.652344 39.972656 L 51.261719 39.582031 M 59.476562 39.582031 L 59.871094 39.972656 Z M 59.476562 39.582031 "/>
<path style=" stroke:none;fill-rule:nonzero;fill:rgb(65.098039%,65.098039%,65.098039%);fill-opacity:1;" d="M 72.128906 39.84375 L 72.261719 40.101562 Z M 72.128906 39.84375 "/>
<path style=" stroke:none;fill-rule:nonzero;fill:rgb(41.176471%,41.176471%,41.176471%);fill-opacity:1;" d="M 87.652344 39.582031 L 88.042969 39.972656 Z M 87.652344 39.582031 "/>
<path style=" stroke:none;fill-rule:nonzero;fill:rgb(65.098039%,65.098039%,65.098039%);fill-opacity:1;" d="M 104.085938 39.582031 L 104.085938 44.285156 L 104.476562 44.285156 L 104.085938 39.582031 M 106.042969 39.582031 L 105.261719 41.933594 L 105.652344 41.933594 L 106.042969 39.582031 M 124.824219 39.582031 L 123.652344 41.933594 L 124.824219 39.582031 M 22.695312 39.972656 L 23.085938 40.363281 Z M 22.695312 39.972656 "/>
<path style=" stroke:none;fill-rule:nonzero;fill:rgb(41.176471%,41.176471%,41.176471%);fill-opacity:1;" d="M 36.390625 39.972656 L 36.78125 40.363281 L 36.390625 39.972656 M 51.652344 39.972656 L 52.042969 40.363281 Z M 51.652344 39.972656 "/>
<path style=" stroke:none;fill-rule:nonzero;fill:rgb(65.098039%,65.098039%,65.098039%);fill-opacity:1;" d="M 59.476562 39.972656 L 59.871094 40.363281 Z M 59.476562 39.972656 "/>
<path style=" stroke:none;fill-rule:nonzero;fill:rgb(41.176471%,41.176471%,41.176471%);fill-opacity:1;" d="M 72.523438 40.234375 L 72.652344 40.496094 Z M 72.523438 40.234375 "/>
<path style=" stroke:none;fill-rule:nonzero;fill:rgb(65.098039%,65.098039%,65.098039%);fill-opacity:1;" d="M 82.175781 39.972656 L 81.390625 42.714844 L 81.78125 42.714844 L 82.175781 39.972656 M 87.261719 39.972656 L 86.871094 43.890625 L 87.261719 43.890625 Z M 87.261719 39.972656 "/>
<path style=" stroke:none;fill-rule:nonzero;fill:rgb(41.176471%,41.176471%,41.176471%);fill-opacity:1;" d="M 124.433594 39.972656 L 124.824219 40.363281 L 124.433594 39.972656 M 128.085938 40.234375 L 128.21875 40.496094 Z M 128.085938 40.234375 "/>
<path style=" stroke:none;fill-rule:nonzero;fill:rgb(65.098039%,65.098039%,65.098039%);fill-opacity:1;" d="M 169.042969 39.972656 L 169.433594 40.363281 L 169.042969 39.972656 M 23.085938 40.363281 L 23.476562 40.757812 Z M 23.085938 40.363281 "/>
<path style=" stroke:none;fill-rule:nonzero;fill:rgb(41.176471%,41.176471%,41.176471%);fill-opacity:1;" d="M 36.78125 40.363281 L 39.128906 42.714844 L 36.78125 40.363281 M 52.042969 40.363281 L 52.433594 40.757812 L 52.042969 40.363281 M 69.261719 40.363281 L 69.652344 40.757812 L 69.261719 40.363281 M 81.78125 40.363281 L 82.175781 40.757812 L 81.78125 40.363281 M 87.261719 40.363281 L 87.261719 44.285156 L 87.652344 44.285156 L 87.261719 40.363281 M 106.042969 40.363281 L 106.433594 40.757812 L 106.042969 40.363281 M 168.652344 40.363281 L 168.261719 41.148438 Z M 168.652344 40.363281 "/>
<path style=" stroke:none;fill-rule:nonzero;fill:rgb(65.098039%,65.098039%,65.098039%);fill-opacity:1;" d="M 23.476562 40.757812 L 23.871094 41.148438 L 23.476562 40.757812 M 36.78125 40.757812 L 37.175781 41.148438 Z M 36.78125 40.757812 "/>
<path style=" stroke:none;fill-rule:nonzero;fill:rgb(41.176471%,41.176471%,41.176471%);fill-opacity:1;" d="M 52.433594 40.757812 L 52.824219 41.148438 L 52.433594 40.757812 M 59.871094 40.757812 L 60.261719 41.148438 Z M 59.871094 40.757812 "/>
<path style=" stroke:none;fill-rule:nonzero;fill:rgb(65.098039%,65.098039%,65.098039%);fill-opacity:1;" d="M 69.390625 41.019531 L 69.523438 41.277344 L 69.390625 41.019531 M 72.523438 41.019531 L 72.652344 41.277344 Z M 72.523438 41.019531 "/>
<path style=" stroke:none;fill-rule:nonzero;fill:rgb(41.176471%,41.176471%,41.176471%);fill-opacity:1;" d="M 124.042969 40.757812 L 124.433594 41.148438 L 124.042969 40.757812 M 128.347656 40.757812 L 129.523438 42.324219 Z M 128.347656 40.757812 "/>
<path style=" stroke:none;fill-rule:nonzero;fill:rgb(65.098039%,65.098039%,65.098039%);fill-opacity:1;" d="M 168.652344 40.757812 L 169.042969 41.148438 Z M 168.652344 40.757812 "/>
<path style=" stroke:none;fill-rule:nonzero;fill:rgb(41.176471%,41.176471%,41.176471%);fill-opacity:1;" d="M 23.871094 41.148438 L 25.433594 42.714844 Z M 23.871094 41.148438 "/>
<path style=" stroke:none;fill-rule:nonzero;fill:rgb(65.098039%,65.098039%,65.098039%);fill-opacity:1;" d="M 37.175781 41.148438 L 37.566406 41.539062 Z M 37.175781 41.148438 "/>
<path style=" stroke:none;fill-rule:nonzero;fill:rgb(41.176471%,41.176471%,41.176471%);fill-opacity:1;" d="M 52.824219 41.148438 L 53.21875 41.539062 Z M 52.824219 41.148438 "/>
<path style=" stroke:none;fill-rule:nonzero;fill:rgb(65.098039%,65.098039%,65.098039%);fill-opacity:1;" d="M 59.871094 41.148438 L 60.261719 41.539062 Z M 59.871094 41.148438 "/>
<path style=" stroke:none;fill-rule:nonzero;fill:rgb(41.176471%,41.176471%,41.176471%);fill-opacity:1;" d="M 72.914062 41.410156 L 73.042969 41.671875 L 72.914062 41.410156 M 105.78125 41.410156 L 105.914062 41.671875 L 105.78125 41.410156 M 123.652344 41.148438 L 124.042969 41.539062 Z M 123.652344 41.148438 "/>
<path style=" stroke:none;fill-rule:nonzero;fill:rgb(65.098039%,65.098039%,65.098039%);fill-opacity:1;" d="M 168.261719 41.148438 L 168.652344 41.539062 L 168.261719 41.148438 M 23.871094 41.539062 L 24.261719 41.933594 L 23.871094 41.539062 M 37.566406 41.539062 L 37.957031 41.933594 L 37.566406 41.539062 M 53.21875 41.539062 L 52.824219 42.714844 Z M 53.21875 41.539062 "/>
<path style=" stroke:none;fill-rule:nonzero;fill:rgb(41.176471%,41.176471%,41.176471%);fill-opacity:1;" d="M 60.261719 41.539062 L 61.042969 44.285156 L 61.433594 44.285156 L 60.261719 41.539062 M 69 41.800781 L 69.128906 42.0625 L 69 41.800781 M 81.390625 41.539062 L 81.78125 41.933594 Z M 81.390625 41.539062 "/>
<path style=" stroke:none;fill-rule:nonzero;fill:rgb(65.098039%,65.098039%,65.098039%);fill-opacity:1;" d="M 128.347656 41.539062 L 128.738281 41.933594 Z M 128.347656 41.539062 "/>
<path style=" stroke:none;fill-rule:nonzero;fill:rgb(41.176471%,41.176471%,41.176471%);fill-opacity:1;" d="M 167.871094 41.539062 L 168.261719 41.933594 Z M 167.871094 41.539062 "/>
<path style=" stroke:none;fill-rule:nonzero;fill:rgb(65.098039%,65.098039%,65.098039%);fill-opacity:1;" d="M 24.261719 41.933594 L 24.652344 42.324219 L 24.261719 41.933594 M 37.957031 41.933594 L 38.347656 42.324219 Z M 37.957031 41.933594 "/>
<path style=" stroke:none;fill-rule:nonzero;fill:rgb(41.176471%,41.176471%,41.176471%);fill-opacity:1;" d="M 52.824219 41.933594 L 53.21875 42.324219 Z M 52.824219 41.933594 "/>
<path style=" stroke:none;fill-rule:nonzero;fill:rgb(65.098039%,65.098039%,65.098039%);fill-opacity:1;" d="M 72.78125 41.933594 L 73.175781 43.890625 L 73.566406 43.890625 Z M 72.78125 41.933594 "/>
<path style=" stroke:none;fill-rule:nonzero;fill:rgb(41.176471%,41.176471%,41.176471%);fill-opacity:1;" d="M 105.261719 41.933594 L 106.042969 43.109375 Z M 105.261719 41.933594 "/>
<path style=" stroke:none;fill-rule:nonzero;fill:rgb(65.098039%,65.098039%,65.098039%);fill-opacity:1;" d="M 123.261719 41.933594 L 123.652344 42.324219 L 123.261719 41.933594 M 128.738281 41.933594 L 129.128906 42.324219 Z M 128.738281 41.933594 "/>
<path style=" stroke:none;fill-rule:nonzero;fill:rgb(41.176471%,41.176471%,41.176471%);fill-opacity:1;" d="M 167.476562 41.933594 L 167.871094 42.324219 Z M 167.476562 41.933594 "/>
<path style=" stroke:none;fill-rule:nonzero;fill:rgb(65.098039%,65.098039%,65.098039%);fill-opacity:1;" d="M 24.652344 42.324219 L 25.042969 42.714844 L 24.652344 42.324219 M 38.347656 42.324219 L 38.738281 42.714844 Z M 38.347656 42.324219 "/>
<path style=" stroke:none;fill-rule:nonzero;fill:rgb(41.176471%,41.176471%,41.176471%);fill-opacity:1;" d="M 52.433594 42.324219 L 52.824219 42.714844 Z M 52.433594 42.324219 "/>
<path style=" stroke:none;fill-rule:nonzero;fill:rgb(65.098039%,65.098039%,65.098039%);fill-opacity:1;" d="M 60.261719 42.324219 L 60.652344 42.714844 L 60.261719 42.324219 M 68.871094 42.324219 L 69.261719 42.714844 L 68.871094 42.324219 M 104.871094 42.324219 L 105.261719 42.714844 Z M 104.871094 42.324219 "/>
<path style=" stroke:none;fill-rule:nonzero;fill:rgb(41.176471%,41.176471%,41.176471%);fill-opacity:1;" d="M 122.476562 42.324219 L 122.085938 43.109375 Z M 122.476562 42.324219 "/>
<path style=" stroke:none;fill-rule:nonzero;fill:rgb(65.098039%,65.098039%,65.098039%);fill-opacity:1;" d="M 122.871094 42.324219 L 123.261719 42.714844 L 122.871094 42.324219 M 129.128906 42.324219 L 129.523438 42.714844 Z M 129.128906 42.324219 "/>
<path style=" stroke:none;fill-rule:nonzero;fill:rgb(41.176471%,41.176471%,41.176471%);fill-opacity:1;" d="M 167.085938 42.324219 L 167.476562 42.714844 Z M 167.085938 42.324219 "/>
<path style=" stroke:none;fill-rule:nonzero;fill:rgb(65.098039%,65.098039%,65.098039%);fill-opacity:1;" d="M 25.042969 42.714844 L 25.433594 43.109375 L 25.042969 42.714844 M 39.128906 42.714844 L 39.914062 43.5 Z M 39.128906 42.714844 "/>
<path style=" stroke:none;fill-rule:nonzero;fill:rgb(41.176471%,41.176471%,41.176471%);fill-opacity:1;" d="M 39.523438 42.714844 L 39.914062 43.109375 L 39.523438 42.714844 M 52.042969 42.714844 L 52.433594 43.109375 L 52.042969 42.714844 M 68.476562 42.714844 L 68.085938 44.285156 L 68.476562 44.285156 L 68.476562 42.714844 M 73.175781 42.714844 L 73.566406 43.109375 L 73.175781 42.714844 M 81 42.714844 L 81.390625 43.109375 Z M 81 42.714844 "/>
<path style=" stroke:none;fill-rule:nonzero;fill:rgb(65.098039%,65.098039%,65.098039%);fill-opacity:1;" d="M 105.261719 42.714844 L 105.652344 43.109375 L 105.261719 42.714844 M 122.476562 42.714844 L 122.871094 43.109375 L 122.476562 42.714844 M 129.523438 42.714844 L 129.914062 43.109375 Z M 129.523438 42.714844 "/>
<path style=" stroke:none;fill-rule:nonzero;fill:rgb(41.176471%,41.176471%,41.176471%);fill-opacity:1;" d="M 139.304688 42.714844 L 140.476562 44.285156 Z M 139.304688 42.714844 "/>
<path style=" stroke:none;fill-rule:nonzero;fill:rgb(65.098039%,65.098039%,65.098039%);fill-opacity:1;" d="M 166.695312 42.714844 L 167.085938 43.109375 Z M 166.695312 42.714844 "/>
<path style=" stroke:none;fill-rule:nonzero;fill:rgb(41.176471%,41.176471%,41.176471%);fill-opacity:1;" d="M 25.433594 43.109375 L 25.824219 43.5 L 25.433594 43.109375 M 39.914062 43.109375 L 40.304688 43.5 L 39.914062 43.109375 M 51.261719 43.109375 L 51.652344 43.5 Z M 51.261719 43.109375 "/>
<path style=" stroke:none;fill-rule:nonzero;fill:rgb(65.098039%,65.098039%,65.098039%);fill-opacity:1;" d="M 51.652344 43.109375 L 52.042969 43.5 L 51.652344 43.109375 M 81.128906 43.371094 L 81.261719 43.628906 L 81.128906 43.371094 M 106.042969 43.109375 L 106.042969 43.5 L 107.609375 43.890625 L 107.609375 43.5 Z M 106.042969 43.109375 "/>
<path style=" stroke:none;fill-rule:nonzero;fill:rgb(41.176471%,41.176471%,41.176471%);fill-opacity:1;" d="M 106.824219 43.109375 L 107.21875 43.5 L 106.824219 43.109375 M 121.304688 43.109375 L 121.695312 43.5 Z M 121.304688 43.109375 "/>
<path style=" stroke:none;fill-rule:nonzero;fill:rgb(65.098039%,65.098039%,65.098039%);fill-opacity:1;" d="M 121.695312 43.109375 L 122.085938 43.5 L 121.695312 43.109375 M 129.914062 43.109375 L 129.914062 43.5 L 132.652344 44.675781 L 132.652344 44.285156 Z M 129.914062 43.109375 "/>
<path style=" stroke:none;fill-rule:nonzero;fill:rgb(41.176471%,41.176471%,41.176471%);fill-opacity:1;" d="M 130.304688 43.109375 L 130.695312 43.5 L 130.304688 43.109375 M 138.914062 43.109375 L 139.304688 43.5 L 138.914062 43.109375 M 165.914062 43.109375 L 166.304688 43.5 Z M 165.914062 43.109375 "/>
<path style=" stroke:none;fill-rule:nonzero;fill:rgb(65.098039%,65.098039%,65.098039%);fill-opacity:1;" d="M 166.304688 43.109375 L 166.695312 43.5 Z M 166.304688 43.109375 "/>
<path style=" stroke:none;fill-rule:nonzero;fill:rgb(41.176471%,41.176471%,41.176471%);fill-opacity:1;" d="M 25.824219 43.5 L 26.609375 44.285156 Z M 25.824219 43.5 "/>
<path style=" stroke:none;fill-rule:nonzero;fill:rgb(65.098039%,65.098039%,65.098039%);fill-opacity:1;" d="M 40.304688 43.5 L 40.304688 43.890625 L 43.433594 44.675781 L 43.433594 44.285156 Z M 40.304688 43.5 "/>
<path style=" stroke:none;fill-rule:nonzero;fill:rgb(41.176471%,41.176471%,41.176471%);fill-opacity:1;" d="M 41.085938 43.5 L 41.476562 43.890625 L 41.085938 43.5 M 50.476562 43.5 L 50.871094 43.890625 Z M 50.476562 43.5 "/>
<path style=" stroke:none;fill-rule:nonzero;fill:rgb(65.098039%,65.098039%,65.098039%);fill-opacity:1;" d="M 51.128906 43.628906 L 51.390625 43.761719 L 51.128906 43.628906 M 60.78125 43.761719 L 60.914062 44.023438 L 60.78125 43.761719 M 68.476562 43.5 L 68.871094 43.890625 Z M 68.476562 43.5 "/>
<path style=" stroke:none;fill-rule:nonzero;fill:rgb(41.176471%,41.176471%,41.176471%);fill-opacity:1;" d="M 107.871094 43.628906 L 108.128906 43.761719 L 107.871094 43.628906 M 120.523438 43.5 L 120.914062 43.890625 Z M 120.523438 43.5 "/>
<path style=" stroke:none;fill-rule:nonzero;fill:rgb(65.098039%,65.098039%,65.098039%);fill-opacity:1;" d="M 121.175781 43.628906 L 121.433594 43.761719 Z M 121.175781 43.628906 "/>
<path style=" stroke:none;fill-rule:nonzero;fill:rgb(41.176471%,41.176471%,41.176471%);fill-opacity:1;" d="M 131.085938 43.5 L 131.476562 43.890625 L 131.085938 43.5 M 138.128906 43.5 L 138.523438 43.890625 Z M 138.128906 43.5 "/>
<path style=" stroke:none;fill-rule:nonzero;fill:rgb(65.098039%,65.098039%,65.098039%);fill-opacity:1;" d="M 138.523438 43.5 L 138.914062 43.890625 Z M 138.523438 43.5 "/>
<path style=" stroke:none;fill-rule:nonzero;fill:rgb(41.176471%,41.176471%,41.176471%);fill-opacity:1;" d="M 156.914062 43.5 L 156.914062 50.554688 L 157.304688 50.554688 Z M 156.914062 43.5 "/>
<path style=" stroke:none;fill-rule:nonzero;fill:rgb(65.098039%,65.098039%,65.098039%);fill-opacity:1;" d="M 157.304688 43.5 L 157.304688 50.554688 L 157.695312 50.554688 L 158.476562 44.285156 L 158.476562 43.890625 Z M 157.304688 43.5 "/>
<path style=" stroke:none;fill-rule:nonzero;fill:rgb(41.176471%,41.176471%,41.176471%);fill-opacity:1;" d="M 158.085938 43.5 L 158.476562 43.890625 L 158.085938 43.5 M 165.128906 43.5 L 165.523438 43.890625 Z M 165.128906 43.5 "/>
<path style=" stroke:none;fill-rule:nonzero;fill:rgb(65.098039%,65.098039%,65.098039%);fill-opacity:1;" d="M 165.78125 43.628906 L 166.042969 43.761719 Z M 165.78125 43.628906 "/>
<path style=" stroke:none;fill-rule:nonzero;fill:rgb(41.176471%,41.176471%,41.176471%);fill-opacity:1;" d="M 10.566406 43.890625 L 10.957031 44.285156 Z M 10.566406 43.890625 "/>
<path style=" stroke:none;fill-rule:nonzero;fill:rgb(65.098039%,65.098039%,65.098039%);fill-opacity:1;" d="M 25.824219 43.890625 L 26.21875 44.285156 L 25.824219 43.890625 M 32.476562 43.890625 L 26.21875 44.285156 L 26.21875 44.675781 Z M 32.476562 43.890625 "/>
<path style=" stroke:none;fill-rule:nonzero;fill:rgb(41.176471%,41.176471%,41.176471%);fill-opacity:1;" d="M 42.523438 44.023438 L 42.78125 44.152344 L 42.523438 44.023438 M 48.914062 43.890625 L 48.914062 44.285156 L 50.085938 44.285156 Z M 48.914062 43.890625 "/>
<path style=" stroke:none;fill-rule:nonzero;fill:rgb(65.098039%,65.098039%,65.098039%);fill-opacity:1;" d="M 50.347656 44.023438 L 50.609375 44.152344 Z M 50.347656 44.023438 "/>
<path style=" stroke:none;fill-rule:nonzero;fill:rgb(41.176471%,41.176471%,41.176471%);fill-opacity:1;" d="M 73.566406 43.890625 L 73.957031 44.285156 L 73.566406 43.890625 M 80.609375 43.890625 L 81 44.285156 Z M 80.609375 43.890625 "/>
<path style=" stroke:none;fill-rule:nonzero;fill:rgb(65.098039%,65.098039%,65.098039%);fill-opacity:1;" d="M 108.261719 44.023438 L 108.523438 44.152344 Z M 108.261719 44.023438 "/>
<path style=" stroke:none;fill-rule:nonzero;fill:rgb(41.176471%,41.176471%,41.176471%);fill-opacity:1;" d="M 108.78125 43.890625 L 108.78125 44.285156 L 109.957031 44.285156 L 108.78125 43.890625 M 117 44.285156 L 117 44.675781 L 120.128906 44.285156 Z M 117 44.285156 "/>
<path style=" stroke:none;fill-rule:nonzero;fill:rgb(65.098039%,65.098039%,65.098039%);fill-opacity:1;" d="M 120.390625 44.023438 L 120.652344 44.152344 Z M 120.390625 44.023438 "/>
<path style=" stroke:none;fill-rule:nonzero;fill:rgb(41.176471%,41.176471%,41.176471%);fill-opacity:1;" d="M 132.128906 44.023438 L 132.390625 44.152344 L 132.128906 44.023438 M 132.652344 44.285156 L 132.652344 44.675781 L 137.738281 44.285156 Z M 132.652344 44.285156 "/>
<path style=" stroke:none;fill-rule:nonzero;fill:rgb(65.098039%,65.098039%,65.098039%);fill-opacity:1;" d="M 138 44.023438 L 138.261719 44.152344 Z M 138 44.023438 "/>
<path style=" stroke:none;fill-rule:nonzero;fill:rgb(41.176471%,41.176471%,41.176471%);fill-opacity:1;" d="M 146.347656 43.890625 L 146.738281 44.285156 L 146.347656 43.890625 M 158.738281 44.023438 L 159 44.152344 L 158.738281 44.023438 M 159.652344 44.285156 L 159.652344 44.675781 L 164.738281 44.285156 Z M 159.652344 44.285156 "/>
<path style=" stroke:none;fill-rule:nonzero;fill:rgb(65.098039%,65.098039%,65.098039%);fill-opacity:1;" d="M 165 44.023438 L 165.261719 44.152344 L 165 44.023438 M 10.566406 44.285156 L 10.566406 44.675781 L 18 44.675781 Z M 10.566406 44.285156 "/>
<path style=" stroke:none;fill-rule:nonzero;fill:rgb(41.176471%,41.176471%,41.176471%);fill-opacity:1;" d="M 43.433594 44.285156 L 43.433594 44.675781 L 48.523438 44.675781 Z M 43.433594 44.285156 "/>
<path style=" stroke:none;fill-rule:nonzero;fill:rgb(65.098039%,65.098039%,65.098039%);fill-opacity:1;" d="M 48.523438 44.285156 L 48.523438 44.675781 L 49.695312 44.675781 L 48.523438 44.285156 M 61.042969 44.285156 L 61.042969 44.675781 L 68.476562 44.675781 L 61.042969 44.285156 M 73.566406 44.285156 L 73.566406 44.675781 L 81 44.675781 L 73.566406 44.285156 M 87.261719 44.285156 L 87.261719 44.675781 L 104.085938 44.675781 C 99.695312 42.828125 92.042969 44.285156 87.261719 44.285156 M 109.175781 44.285156 L 109.175781 44.675781 L 110.347656 44.675781 Z M 109.175781 44.285156 "/>
<path style=" stroke:none;fill-rule:nonzero;fill:rgb(41.176471%,41.176471%,41.176471%);fill-opacity:1;" d="M 110.347656 44.285156 L 110.347656 44.675781 L 112.695312 44.675781 Z M 110.347656 44.285156 "/>
<path style=" stroke:none;fill-rule:nonzero;fill:rgb(65.098039%,65.098039%,65.098039%);fill-opacity:1;" d="M 119.21875 44.414062 L 119.476562 44.546875 L 119.21875 44.414062 M 136.957031 44.285156 L 137.347656 44.675781 L 136.957031 44.285156 M 139.695312 44.285156 L 139.695312 44.675781 L 146.738281 44.675781 L 139.695312 44.285156 M 159.128906 44.414062 L 159.390625 44.546875 L 159.128906 44.414062 M 163.957031 44.285156 L 164.347656 44.675781 L 163.957031 44.285156 M 45 44.675781 L 45 45.066406 L 46.957031 45.066406 L 45 44.675781 M 111.914062 44.675781 L 111.914062 45.066406 L 113.871094 45.066406 Z M 111.914062 44.675781 "/>
<path style=" stroke:none;fill-rule:nonzero;fill:rgb(41.176471%,41.176471%,41.176471%);fill-opacity:1;" d="M 113.871094 44.675781 L 113.871094 45.066406 L 115.824219 45.066406 Z M 113.871094 44.675781 "/>
<path style=" stroke:none;fill-rule:nonzero;fill:rgb(65.098039%,65.098039%,65.098039%);fill-opacity:1;" d="M 115.824219 44.675781 L 115.824219 45.066406 L 117.78125 45.066406 L 115.824219 44.675781 M 133.824219 44.675781 L 133.824219 45.066406 L 135.78125 45.066406 L 133.824219 44.675781 M 160.433594 44.675781 L 160.433594 45.066406 L 162 45.066406 L 160.433594 44.675781 M 150.261719 50.554688 L 150.261719 50.945312 L 157.304688 50.945312 Z M 150.261719 50.554688 "/>
</g>
</svg>
